<svg width="48" height="48" viewBox="0 0 48 48" fill="none" xmlns="http://www.w3.org/2000/svg">
<path d="M6 16H20C21.1867 16 22.3467 15.6481 23.3334 14.9888C24.3201 14.3295 25.0892 13.3925 25.5433 12.2961C25.9974 11.1997 26.1162 9.99335 25.8847 8.82946C25.6532 7.66558 25.0818 6.59648 24.2426 5.75736C23.4035 4.91825 22.3344 4.3468 21.1705 4.11529C20.0067 3.88378 18.8003 4.0026 17.7039 4.45673C16.6075 4.91085 15.6705 5.67989 15.0112 6.66658C14.3519 7.65328 14 8.81331 14 10M8 32H30C31.1867 32 32.3467 32.3519 33.3334 33.0112C34.3201 33.6705 35.0892 34.6075 35.5433 35.7039C35.9974 36.8003 36.1162 38.0067 35.8847 39.1705C35.6532 40.3344 35.0818 41.4035 34.2426 42.2426C33.4035 43.0818 32.3344 43.6532 31.1705 43.8847C30.0067 44.1162 28.8003 43.9974 27.7039 43.5433C26.6075 43.0892 25.6705 42.3201 25.0112 41.3334C24.3519 40.3467 24 39.1867 24 38M4 24H38C39.1867 24 40.3467 23.6481 41.3334 22.9888C42.3201 22.3295 43.0892 21.3925 43.5433 20.2961C43.9974 19.1997 44.1162 17.9933 43.8847 16.8295C43.6532 15.6656 43.0818 14.5965 42.2426 13.7574C41.4035 12.9182 40.3344 12.3468 39.1705 12.1153C38.0067 11.8838 36.8003 12.0026 35.7039 12.4567C34.6075 12.9109 33.6705 13.6799 33.0112 14.6666C32.3519 15.6533 32 16.8133 32 18" stroke="white" stroke-width="3" stroke-linecap="round" stroke-linejoin="round"/>
</svg>
