<svg width="44" height="38" viewBox="0 0 44 38" fill="none" xmlns="http://www.w3.org/2000/svg">
<path d="M2 12L4.608 14.086C5.51657 14.8127 6.57271 15.3325 7.70279 15.6091C8.83286 15.8857 10.0097 15.9126 11.1512 15.6877C12.2927 15.4628 13.3714 14.9917 14.3121 14.3071C15.2528 13.6225 16.0329 12.741 16.598 11.724L22 2L27.402 11.724C27.9672 12.7408 28.7475 13.6222 29.6883 14.3066C30.6291 14.9909 31.7078 15.4619 32.8493 15.6865C33.9908 15.9112 35.1676 15.8842 36.2975 15.6075C37.4275 15.3307 38.4836 14.8108 39.392 14.084L42 12L38.492 29.54C38.3388 30.3055 38.0129 31.0259 37.5391 31.6463C37.0653 32.2667 36.4561 32.7707 35.758 33.12V33.12C31.4863 35.256 26.776 36.368 22 36.368C17.224 36.368 12.5137 35.256 8.242 33.12V33.12C7.54385 32.7707 6.93466 32.2667 6.46086 31.6463C5.98706 31.0259 5.66116 30.3055 5.508 29.54L2 12Z" stroke="white" stroke-width="3" stroke-linecap="round" stroke-linejoin="round"/>
<path d="M14 26C19.192 28.666 24.808 28.666 30 26" stroke="white" stroke-width="3" stroke-linecap="round" stroke-linejoin="round"/>
</svg>
