<svg width="164" height="40" viewBox="0 0 164 40" fill="none" xmlns="http://www.w3.org/2000/svg">
<path d="M28.3618 31.588L4.81332 7.81191V14.6844V21.5574L21.5546 38.4605L27.1909 37.2782L28.3618 31.588Z" fill="url(#paint0_linear_18_24)"/>
<path fill-rule="evenodd" clip-rule="evenodd" d="M4.81332 14.6844L27.1909 37.2782L28.3618 31.588L4.81332 7.81191V14.6844Z" fill="#FF8CC8"/>
<path d="M0 3.18809V36.8124L4.81334 40L9.62668 36.8124V26.4173L8.2167 24.9937L4.81334 28.4299V21.5574V14.6844L8.2167 11.2482L9.62668 9.82455V3.18809L4.81334 0L0 3.18809Z" fill="url(#paint1_linear_18_24)"/>
<path d="M19.3572 0L4.81332 14.6844V21.5574V28.4299L26.1644 6.8725L24.9934 1.1823L19.3572 0Z" fill="url(#paint2_linear_18_24)"/>
<path fill-rule="evenodd" clip-rule="evenodd" d="M4.81332 21.5574L24.9934 1.1823L26.1644 6.8725L4.81332 28.4299V21.5574Z" fill="#008B80"/>
<path fill-rule="evenodd" clip-rule="evenodd" d="M8.21668 11.2482L9.62562 9.82561V3.18704L4.81332 0V14.6844L8.21668 11.2482ZM8.21668 24.9937L4.81332 28.4299V40L9.62666 36.8124V26.4173L8.21668 24.9937Z" fill="#004790"/>
<path fill-rule="evenodd" clip-rule="evenodd" d="M14.104 24.0648L15.0239 18.1212L11.6201 21.5574L9.62668 23.5706L8.21671 24.9937L9.62668 26.4173L13.184 30.009L14.104 24.0648Z" fill="#102770"/>
<path fill-rule="evenodd" clip-rule="evenodd" d="M9.62666 26.4173L8.21668 24.9937L4.81332 28.4299L9.62666 29.3377V26.4173Z" fill="#102770"/>
<path d="M39.9083 38.6449C36.4366 37.7966 34.0978 34.7344 34.0978 31.1554V22.1164C34.0978 18.5005 36.4731 15.4778 39.9083 14.5901C41.5526 14.1838 43.343 13.9994 45.1699 13.9994C46.9608 13.9994 48.7512 14.1838 50.3955 14.5901C53.8667 15.4752 56.2055 18.5005 56.2055 22.1164V31.1554C56.2055 34.7344 53.8667 37.794 50.3955 38.6449C48.7512 39.0511 46.9608 39.2355 45.1699 39.2355C43.343 39.2355 41.5526 39.0511 39.9083 38.6449ZM42.4293 19.8287C41.8443 19.9313 41.3142 20.2397 40.933 20.6993C40.5518 21.1588 40.3441 21.7398 40.3467 22.3393V30.9341C40.3434 31.5376 40.5501 32.1231 40.9307 32.5884C41.3113 33.0537 41.8417 33.3692 42.4293 33.4799C43.3065 33.6275 44.2202 33.7381 45.1699 33.7381C46.0836 33.7381 46.9963 33.6275 47.874 33.4799C48.4616 33.3692 48.9921 33.0537 49.3728 32.5884C49.7535 32.1231 49.9603 31.5376 49.9572 30.9341V22.3393C49.9593 21.7401 49.7513 21.1594 49.37 20.7002C48.9887 20.241 48.4588 19.9328 47.874 19.8303C46.9837 19.6514 46.0776 19.5649 45.1699 19.5722C44.2202 19.5706 43.3065 19.6443 42.4293 19.8287Z" fill="white"/>
<path d="M61.6863 37.9441V22.0796C61.6863 18.5005 64.0611 15.441 67.4963 14.5901C69.1406 14.1839 70.931 13.9995 72.7579 13.9995C74.5488 13.9995 76.3392 14.1839 77.9835 14.5901C81.4547 15.4384 83.7935 18.5005 83.7935 22.0796V37.9441L83.2837 38.4615H78.0565L77.5451 37.9452V22.3393C77.5472 21.7401 77.3392 21.1594 76.958 20.7002C76.5767 20.241 76.0467 19.9329 75.462 19.8303C74.5717 19.6514 73.6656 19.5649 72.7579 19.5722C71.8082 19.5722 70.8945 19.6459 70.0173 19.8303C69.4326 19.933 68.9028 20.2412 68.5216 20.7004C68.1405 21.1596 67.9325 21.7402 67.9346 22.3393V37.9441L67.4233 38.4605H62.1977L61.6863 37.9441Z" fill="white"/>
<path d="M87.7761 33.1849H88.0683C88.4746 33.1824 88.8635 33.0184 89.1508 32.7283C89.4381 32.4383 89.6005 32.0456 89.603 31.6354V22.0796C89.603 20.4194 90.1144 18.833 91.0281 17.5785C92.0875 16.0844 93.643 15.0239 95.4115 14.5901C97.0558 14.1839 98.9923 13.9995 100.856 13.9995C103.413 13.9995 105.826 14.5163 107.617 16.5453C108.822 17.9473 109.516 19.755 109.516 21.7476V37.9441L109.005 38.4605H103.781L103.27 37.9441V22.1164C103.27 21.4152 103.013 20.7882 102.502 20.3087C102.027 19.7919 101.406 19.5711 100.712 19.5711C99.7695 19.57 98.8287 19.644 97.898 19.7924C97.24 19.9399 96.692 20.2724 96.3268 20.7887C95.9975 21.1944 95.8148 21.7482 95.8148 22.3383V33.5169C95.8148 36.3577 93.5131 38.6802 90.7009 38.6802H87.7787L87.2668 38.1639V33.7013L87.7761 33.1849Z" fill="white"/>
<path d="M130.164 23.7397V22.3393C130.164 21.6386 129.871 20.9004 129.433 20.421C128.665 19.6091 127.094 19.5722 126.071 19.5353C125.121 19.5353 123.88 19.5722 123.002 19.9779C122.654 20.1493 122.348 20.3975 122.108 20.7041C121.867 21.0107 121.698 21.3678 121.613 21.7492L121.065 22.2655H115.839L115.328 21.7492C115.51 17.8751 118.287 15.1106 121.903 14.3335C123.364 14.0379 124.935 13.9647 126.361 14.0011C129.211 14.0379 131.988 14.3699 133.961 16.2139C135.496 17.6159 136.409 19.8662 136.409 22.1149V32.8894C136.409 35.8398 134.399 38.4605 130.087 38.4605H124.243C121.722 38.4605 119.383 38.1654 117.52 36.9852C114.998 35.3988 114.158 32.4104 114.56 29.422C114.925 26.5811 116.643 24.9578 118.943 24.2935C121.062 23.6665 123.255 23.7403 125.447 23.7403L130.164 23.7397ZM130.164 28.6096H123.221C121.612 28.6096 120.772 29.2369 120.699 30.4916C120.553 32.4099 121.686 33.0005 123.951 33.0005H130.164V28.6096Z" fill="white"/>
<path d="M148.141 23.8504H157.752V15.2908L158.263 14.7745H163.489L164 15.2908V37.9463L163.489 38.4615H158.263L157.752 37.9452V29.3846H148.141V37.9441L147.63 38.4605H142.407L141.895 37.9441V15.2887L142.407 14.7724H147.632L148.144 15.2887L148.141 23.8504Z" fill="white"/>
<defs>
<linearGradient id="paint0_linear_18_24" x1="7.15998" y1="16.402" x2="32.1294" y2="42.8262" gradientUnits="userSpaceOnUse">
<stop stop-color="#8C3200"/>
<stop offset="1" stop-color="#FF340A"/>
</linearGradient>
<linearGradient id="paint1_linear_18_24" x1="3.65958" y1="3.67071" x2="6.06062" y2="37.0073" gradientUnits="userSpaceOnUse">
<stop stop-color="#37DBD0"/>
<stop offset="1" stop-color="#0287D0"/>
</linearGradient>
<linearGradient id="paint2_linear_18_24" x1="3.72844" y1="21.0611" x2="30.9935" y2="-0.84931" gradientUnits="userSpaceOnUse">
<stop stop-color="#009B90"/>
<stop offset="1" stop-color="#B0F122"/>
</linearGradient>
</defs>
</svg>
