<svg width="25" height="25" viewBox="0 0 25 25" fill="none" xmlns="http://www.w3.org/2000/svg">
<path d="M12.5 11.6603L18.7789 5.38194C16.9836 3.7966 14.7383 2.9955 12.4873 3.00002C12.3624 5.20371 11.5191 7.36852 9.96167 9.12154L12.5 11.6603Z" fill="#202125"/>
<path d="M9.12104 9.96219C7.36796 11.5202 5.20254 12.3625 3.00002 12.4878C2.99546 14.7387 3.79619 16.984 5.38093 18.7794L11.6598 12.501L9.12104 9.96219Z" fill="#202125"/>
<path d="M19.6189 18.7785C20.9163 17.3079 21.681 15.5344 21.9145 13.7037C20.0453 13.8424 18.2145 14.5678 16.7177 15.8772L19.6189 18.7785Z" fill="#202125"/>
<path d="M15.8775 16.7181C14.5675 18.215 13.8427 20.0454 13.704 21.9144C15.5343 21.6813 17.3079 20.9167 18.7784 19.6191L15.8775 16.7181Z" fill="#202125"/>
<path d="M12.5 13.3401L6.22119 19.6185C8.0169 21.2036 10.2622 22.0049 12.5122 22.0002C12.6381 19.7965 13.4808 17.6317 15.0388 15.8787L12.5 13.3401Z" fill="#202125"/>
<path d="M15.8785 15.0383C17.6316 13.4803 19.797 12.6379 22 12.5123C22.0046 10.2618 21.2035 8.01648 19.6187 6.22124L13.3398 12.4996L15.8785 15.0383Z" fill="#202125"/>
<path d="M5.38074 6.22188C4.08325 7.69247 3.319 9.46595 3.08545 11.2967C4.95469 11.158 6.78506 10.4326 8.2823 9.12318L5.38074 6.22188Z" fill="#202125"/>
<path d="M9.12258 8.28233C10.4322 6.78539 11.1574 4.95502 11.2961 3.08598C9.46535 3.31912 7.69182 4.08374 6.22168 5.38128L9.12258 8.28233Z" fill="#202125"/>
</svg>
