<svg width="25" height="25" viewBox="0 0 25 25" fill="none" xmlns="http://www.w3.org/2000/svg">
<path d="M6.00001 22.6798C5.99907 22.8768 6.07651 23.0662 6.2151 23.2061C6.3537 23.3461 6.54236 23.4252 6.73932 23.4262H11.3507C11.5477 23.4252 11.7363 23.3461 11.8749 23.2061C12.0137 23.0662 12.091 22.8768 12.09 22.6798V13.9196H6.0001L6.00001 22.6798Z" fill="#202125"/>
<path d="M6.58508 10.1879H11.5085V13.5553H6.58508V10.1879Z" fill="#202125"/>
<path d="M10.8425 4.60579C10.7724 3.14816 9.24474 1.66578 8.58941 1.10168L8.47725 1L8.36164 1.09104C7.49955 1.76748 7.24377 3.69113 7.24377 4.61625V9.83036H10.8425L10.8425 4.60579Z" fill="#202125"/>
<path d="M13.6458 10.5941V22.7255C13.6458 22.9113 13.7196 23.0896 13.851 23.221C13.9824 23.3525 14.1607 23.4263 14.3466 23.4263H18.2992C18.485 23.4263 18.6633 23.3525 18.7947 23.221C18.9261 23.0896 19 22.9113 19 22.7255V10.5941H13.6458Z" fill="#202125"/>
</svg>
