<svg fill="#fff" width="1366" height="403" viewBox="0 0 1366 403" fill="none" xmlns="http://www.w3.org/2000/svg">
<path d="M129.6 1.46664C86.4 5.73331 48.4 28.8 23.6 66.1333C8.39998 89.0667 1.19998 110 1.06664 132C1.06664 138.933 1.59998 146.133 2.26664 147.867C3.46664 150.8 3.99998 150.4 12.2666 139.867C23.6 125.333 38.5333 111.067 48.8 104.933C63.2 96.2667 62.5333 97.7333 41.2 121.333C16.1333 149.2 8.93331 161.2 7.19998 178.4C6.26664 186.933 8.26664 201.2 11.4666 209.333L13.6 214.533L45.7333 182.133C70.1333 157.6 80.8 147.867 89.3333 142.267C95.6 138.133 100.8 135.067 101.2 135.333C102.933 137.067 91.3333 150.533 61.4666 181.6C42.9333 200.8 26.8 218.533 25.6 220.8C22.8 226.933 24.4 233.067 31.4666 242.933C39.3333 253.867 42 256 47.3333 256C52.8 256 56.6666 253.2 105.333 212.8C143.067 181.6 143.333 181.333 145.6 184.133C147.867 186.8 147.867 187.2 144 192C136.8 201.067 101.067 231.867 73.7333 252.4C58.4 264 56 266.8 56 273.067C56 281.2 66.2666 296.133 74 299.467C80.5333 302.133 84.5333 300.4 106.267 284.667C159.333 246.133 185.067 224.267 194.533 209.6C205.2 192.667 202.533 178.667 182.667 147.333C172.667 131.6 170.667 126.267 170.667 114.8C170.667 98.4 180.667 84.1333 192.933 83.0667L196 82.7333L199.333 82.4L220.267 99.8667C231.733 109.467 245.067 121.6 250 126.933C264.8 143.067 273.733 160.8 275.6 178.667C276 183.2 276.933 186.267 277.6 185.867C280.4 184.133 286.533 168.667 288.133 159.6C290.267 146.533 288.933 126.4 284.8 110.133C280.4 93.2 269.467 70.4 258.8 56.4C230 18.2667 179.067 -3.46669 129.6 1.46664Z" fill="#F79E22"/>
<ellipse cx="143" cy="390.5" rx="15" ry="4.5" fill="#DD8124"/>
<path d="M860.4 32.2666C859.867 33.2 859.2 40.1333 858.933 47.6L858.4 61.3333H852.667C846 61.3333 843.6 63.6 843.6 69.6C843.6 74.8 846.933 77.3333 853.6 77.3333H858.667V96.9333C858.667 128.267 860.8 136.133 870.8 142C874.267 144 877.733 144.533 886 144.667H896.667L897.067 139.6C897.6 132.667 895.6 130.667 888 130.667C883.733 130.667 880.533 129.867 878.533 128.133C875.333 125.6 875.333 125.2 875.333 101.067V76.6666L884.4 77.0666C895.333 77.7333 900 75.3333 900 69.3333C900 62.9333 897.067 61.3333 885.2 61.3333H874.667V47.6C874.667 38.6666 874.133 33.3333 873.067 32.2666C870.933 30.1333 861.733 30.2666 860.4 32.2666Z" fill="white"/>
<path d="M388.8 60.1332C383.2 61.4666 376.667 65.4666 373.067 69.8666C370.8 72.6666 370.667 72.6666 370.667 67.8666C370.667 62.1332 368.667 59.9999 363.333 59.9999C361.067 59.9999 358.533 60.6666 357.6 61.5999C355.333 63.8666 355.333 141.467 357.6 143.733C359.733 145.867 368.933 145.733 370.267 143.6C370.8 142.8 371.6 129.867 372 115.067C372.667 90.5332 372.933 87.8666 375.467 84.3999C385.2 71.3332 400.533 71.3332 407.733 84.3999C409.6 87.9999 410 93.3332 410.4 115.333C410.667 130.933 411.467 142.667 412.267 143.6C413.067 144.533 415.6 145.333 418.133 145.333C425.867 145.333 426.667 142.667 426.667 115.6C426.667 89.4666 427.467 86.1332 434.533 79.4666C440.133 74.1332 450.933 73.0666 456.4 77.3332C463.867 83.3332 464.533 86.2666 465.067 115.333C465.333 130.933 466.133 142.667 466.933 143.6C467.733 144.533 470.667 145.333 473.467 145.333C481.2 145.333 481.733 142.933 480.933 112.667C480.4 90.7999 480 86.2666 477.467 79.7332C471.867 65.3332 464 59.5999 449.867 59.4666C440 59.4666 431.733 63.7332 425.6 71.9999L421.6 77.4666L418.933 72.9332C415.6 67.0666 408.8 61.9999 402 60.1332C396 58.5332 395.867 58.5332 388.8 60.1332Z" fill="white"/>
<path d="M529.333 59.8666C518.133 63.3333 506.8 73.0666 501.2 83.9999C496.667 93.0666 496.133 107.6 500.133 118C503.6 127.467 513.467 137.867 523.067 142.533C548.133 154.667 578.933 138.4 583.733 110.667C588.667 83.0666 568.267 58.3999 540.933 58.7999C536.4 58.7999 531.2 59.3333 529.333 59.8666ZM555.333 77.7333C565.6 83.5999 570.667 95.5999 568.133 108C566.533 116.267 564.133 120 556.8 125.867C550.133 131.333 536.667 132.4 528.533 128.267C518.267 123.067 513.333 114.4 513.333 102C513.333 90.6666 518.533 82.2666 528.667 76.9333C534.933 73.5999 548.8 73.9999 555.333 77.7333Z" fill="white"/>
<path d="M598.933 61.3333C597.333 62.9333 596 64.8 596 65.7333C596 66.6666 604 84.6666 613.733 105.867C629.067 139.333 631.867 144.667 635.067 145.733C642.8 148.267 644.4 146.133 662.8 106.667C672.133 86.5333 679.867 68.4 679.867 66.4C680.133 59.4666 669.733 56 666.133 61.6C665.067 63.3333 658.667 77.8666 652 94C645.2 110.133 639.333 123.733 638.8 124.4C638.267 124.933 632.267 112 625.467 95.7333C609.333 57.3333 610 58.6666 605.6 58.6666C603.467 58.6666 600.533 59.8666 598.933 61.3333Z" fill="white"/>
<path d="M726.667 60.3999C712.4 63.7332 702.933 71.0666 697.067 83.3332C694 89.9999 693.333 93.0666 693.333 101.6C693.333 123.6 704.4 138.8 724.667 144.667C742.667 150 770.667 142.667 770.667 132.667C770.667 131.067 769.467 128.667 768 127.333C765.467 125.067 765.067 125.067 757.467 128.533C738.933 136.8 716.4 130.667 710.8 115.6C707.733 107.733 706.933 108 736.4 108C759.333 108 764 107.6 768 105.6C778.533 100.4 778.267 84.3999 767.333 72.2666C757.6 61.4666 742.133 56.9332 726.667 60.3999ZM749.333 76.2666C758.667 81.0666 763.733 90.6666 759.333 95.1999C757.467 97.0666 753.6 97.3332 733.2 97.3332C706.933 97.3332 707.467 97.5999 711.2 88.9332C716.8 75.7332 735.733 69.4666 749.333 76.2666Z" fill="white"/>
<path d="M939.2 61.3333C929.2 65.3333 920.933 73.2 915.733 83.7333C912 91.3333 911.333 94 911.333 102.667C911.333 110.667 912 114.133 914.933 120.133C919.2 129.333 926.933 137.333 936.267 142.267C942.4 145.467 944.933 146 954.667 146C964.4 146 967.067 145.467 973.467 142.267C982.267 138 991.067 129.067 995.067 120.267C999.467 110.667 999.2 93.8667 994.533 83.8667C990.133 74.6667 982.667 66.8 974 62.6667C964.8 58.1333 948.667 57.6 939.2 61.3333ZM966.267 76.1333C975.333 79.4667 982.533 90.6667 982.667 101.467C982.667 119.6 970.4 131.6 952.8 130.4C941.6 129.733 934.933 125.467 930.133 115.867C925.733 106.8 925.6 98.9333 930 89.7333C934.533 79.7333 942.8 74.6667 954.133 74.6667C958.8 74.6667 964.133 75.3333 966.267 76.1333Z" fill="white"/>
<path d="M1144 185.333C1138.67 186.667 1136.4 189.333 1135.2 195.6C1133.73 203.333 1135.47 211.067 1139.33 214.267C1142.13 216.8 1144.4 217.333 1151.47 217.333C1158.8 217.333 1160.67 216.8 1163.2 214.267C1169.33 208.133 1168.67 191.6 1162.27 187.333C1158.4 184.8 1149.87 183.867 1144 185.333Z" fill="white"/>
<path d="M432.267 192C428.8 194.133 426.133 198.4 418.8 213.733C413.867 224.133 397.333 258.533 382.133 290.133C366.933 321.733 354.267 349.733 353.733 352.4C353.067 356.533 353.6 357.733 356.933 361.2C361.867 366.133 370.8 368.933 375.733 367.2C378.667 366.267 381.333 362.133 390.4 343.733L401.467 321.333H440.533H479.6L488.8 340.933C493.867 351.733 499.467 362.267 501.067 364.267C504.933 368.8 510.133 369.2 518.267 365.2C525.6 361.733 528.667 357.333 527.333 352.4C526.533 348.933 460.133 208.933 454.4 198.533C449.467 189.6 440.533 186.933 432.267 192ZM455.6 270.533C461.733 283.2 466.667 293.867 466.667 294.133C466.667 294.4 454.933 294.667 440.667 294.667C426.4 294.667 414.667 294.267 414.667 293.867C414.667 293.2 424.933 271.067 436.133 247.467L440.533 238.133L442.533 242.8C443.733 245.333 449.6 257.733 455.6 270.533Z" fill="white"/>
<path d="M593.733 241.2C587.867 242.667 577.867 248.8 575.333 252.267L573.333 255.2V251.6C573.333 249.6 572.133 246.8 570.8 245.467C565.2 239.867 548.533 240.933 545.067 247.067C543.733 249.333 543.333 263.067 543.333 305.067V360.267L547.067 363.467C552.133 367.867 564.533 368 569.867 363.867L573.333 361.2V324.133C573.333 288.533 573.467 287.067 576.4 281.333C578.4 277.333 581.067 274.667 584.667 272.8C591.333 269.333 602.133 269.2 606.667 272.4C616.533 279.333 628 270.8 628 256.667C628 249.867 625.333 246.267 617.867 243.2C612.133 240.8 599.333 239.733 593.733 241.2Z" fill="white"/>
<path d="M655.067 243.333C648.133 246.267 647.867 249.867 648.267 308.133L648.667 360.267L652.4 363.467C657.333 367.733 670 368 674.8 364.133C678 361.6 678 361.333 678.667 326.4C679.333 293.067 679.467 291.067 682.4 285.067C686.8 276.267 692 272.933 702 272.267C709.333 271.733 710.533 272.133 714.533 275.467C722.8 282.4 723.2 284.8 724 324.933C724.8 367.2 724.267 365.6 737.733 366.4C745.2 366.933 746.667 366.533 750.133 363.6L754 360.267L754.667 325.067C755.067 305.867 756 288.8 756.533 287.333C761.2 276.4 769.067 271.467 780.133 272.267C789.2 272.933 792.4 275.2 796.533 284C799.067 289.467 799.333 293.067 800 325.733C800.667 361.467 800.667 361.6 803.867 364.133C808.533 368 821.333 367.733 825.867 363.6L829.333 360.667V323.333C829.467 293.467 829.067 284.4 827.333 278C824.4 266.8 820.667 259.733 814.4 253.333C806.533 245.2 798.933 242.133 786 242C772.133 242 763.067 246.133 753.333 257.067C747.067 264 746.4 264.4 745.067 262.133C741.867 256.533 733.733 248.933 727.467 245.6C722 242.8 718.8 242.133 710.667 242.133C698.8 242 691.333 244.933 682.933 252.933C679.733 255.867 677.6 257.333 678 256.133C679.333 251.733 676.667 246 671.867 243.733C666.4 240.933 660.933 240.8 655.067 243.333Z" fill="white"/>
<path d="M894.667 243.733C865.867 253.333 850.667 274.133 850.667 303.867C850.667 322.533 856 336.533 868 349.733C876.267 358.8 887.067 364.533 902 367.6C920.267 371.333 946.8 367.067 958.4 358.667C966.8 352.667 967.467 345.6 960.4 337.333C956.267 332.4 954.267 332.4 939.333 337.867C926.267 342.667 910.267 342.667 900.667 338C897.067 336.267 893.067 334 891.867 333.067C887.733 329.733 882.667 320.933 882.667 317.2V313.333H919.867C956.133 313.333 957.067 313.333 961.333 310.267C968.8 305.333 971.333 299.467 971.2 288C971.2 279.467 970.533 276.8 967.067 269.867C961.733 259.467 950.533 249.2 940.267 245.2C929.6 240.933 905.333 240.267 894.667 243.733ZM931.333 271.467C938.267 275.067 942.667 281.6 942.667 288.267C942.667 292.533 942.133 293.6 939.2 294.667C937.333 295.467 923.867 296 909.2 296H882.667V292.667C882.667 284.133 891.2 274.133 902.133 270C909.6 267.2 924.533 268 931.333 271.467Z" fill="white"/>
<path d="M1000.53 242.133C998.933 242.533 996.533 244 995.2 245.6C992.8 248.133 992.667 251.6 992.667 304.267V360.267L996.533 363.6C1000 366.533 1001.33 366.933 1008.93 366.4C1022.4 365.6 1021.87 367.067 1022.67 326.267C1023.2 302.133 1023.87 290.133 1025.07 287.333C1033.73 267.467 1065.47 265.6 1075.73 284.533C1077.6 288 1078.13 294 1078.67 324.4L1079.33 360.267L1083.07 363.467C1086.13 366.133 1088.27 366.667 1094.8 366.667C1101.47 366.667 1103.33 366.133 1106 363.333L1109.33 360.133V324.4C1109.33 284.267 1108.13 276.8 1100.13 264.133C1090 248.4 1072.13 239.733 1054 241.867C1045.07 242.933 1031.73 249.6 1026.4 255.867L1022 261.067L1021.87 254.4C1021.73 245.867 1018.8 242.8 1009.87 242.133C1006.27 241.733 1002 241.867 1000.53 242.133Z" fill="white"/>
<path d="M1144.4 242.8C1135.73 245.333 1135.87 244.4 1136.27 306L1136.67 361.6L1139.87 364.133C1143.33 366.933 1156.93 367.733 1161.33 365.333C1166 362.8 1166.67 355.467 1166.67 304.667C1166.67 254.4 1166 246.533 1161.6 244.133C1157.73 242.133 1148.93 241.467 1144.4 242.8Z" fill="white"/>
<path d="M1239.6 242.8C1228.8 244 1216 250.667 1206.67 260C1182.53 284.133 1182.4 323.067 1206.13 348C1219.33 361.867 1232.8 367.467 1250.53 366.4C1262 365.6 1270 362.533 1278.53 355.2L1284 350.4V355.733C1284 362.933 1287.33 365.733 1297.2 366.4C1303.87 366.933 1305.33 366.533 1308.8 363.6L1312.67 360.267V304.267C1312.67 251.733 1312.53 248.133 1310.27 245.6C1307.07 242 1299.07 240.8 1292.13 242.667C1286 244.267 1284 247.067 1284 254.133V259.2L1279.07 254.4C1269.2 244.933 1255.73 241.067 1239.6 242.8ZM1263.73 274.4C1274.8 279.467 1281.33 290.4 1281.33 304C1281.33 323.867 1269.33 336.533 1250.67 336.533C1232.53 336.533 1218.67 322.933 1218.67 305.2C1218.67 295.6 1220.93 288.933 1226.4 282.667C1235.87 271.6 1250.67 268.267 1263.73 274.4Z" fill="white"/>
<path d="M195.379 147.067C177.379 120.4 176.313 111.867 189.246 97.4666C192.046 94.4 194.979 92 195.913 92C196.846 92 210.446 104.8 226.179 120.267C245.779 139.733 255.779 150.8 258.313 155.467C271.113 179.867 267.779 208.667 247.246 249.467C235.379 273.067 223.513 289.6 199.113 316.667C187.646 329.467 156.179 370.667 157.113 371.6L143.579 390.833L129.246 371.867C129.913 371.067 96.7125 326.4 90.8459 320.4C87.9125 317.2 85.6459 314.533 86.0459 314.267C86.3125 313.867 98.8459 304.8 113.913 294C152.713 265.867 164.579 256.4 181.913 238.8C218.979 201.467 221.246 185.2 195.379 147.067Z" fill="#F7C714"/>
</svg>
