<svg width="28" height="28" viewBox="0 0 28 28" fill="none" xmlns="http://www.w3.org/2000/svg">
<path d="M14 15.0001C15.6569 15.0001 17 13.6569 17 12C17 10.3432 15.6569 9 14 9C12.3431 9 10.9999 10.3432 10.9999 12C10.9999 13.6569 12.3431 15.0001 14 15.0001Z" stroke="black" stroke-width="2" stroke-linecap="round" stroke-linejoin="round"/>
<path d="M14.0001 4C11.8784 4 9.8435 4.84287 8.34318 6.34318C6.84287 7.8435 6 9.87836 6 12.0001C6 13.8922 6.40201 15.1302 7.50002 16.5002L14.0001 24.0003L20.5002 16.5002C21.5983 15.1302 22.0003 13.8922 22.0003 12.0001C22.0003 9.87836 21.1574 7.8435 19.6571 6.34318C18.1568 4.84287 16.1219 4 14.0001 4V4Z" stroke="black" stroke-width="2" stroke-linecap="round" stroke-linejoin="round"/>
</svg>
