<svg width="32" height="32" viewBox="0 0 32 32" fill="none" xmlns="http://www.w3.org/2000/svg">
<path d="M6 11C6 10.4696 6.21071 9.96086 6.58579 9.58579C6.96086 9.21071 7.46957 9 8 9H24C24.5304 9 25.0391 9.21071 25.4142 9.58579C25.7893 9.96086 26 10.4696 26 11V21C26 21.5304 25.7893 22.0391 25.4142 22.4142C25.0391 22.7893 24.5304 23 24 23H8C7.46957 23 6.96086 22.7893 6.58579 22.4142C6.21071 22.0391 6 21.5304 6 21V11Z" stroke="#008FD6" stroke-width="2" stroke-linecap="round" stroke-linejoin="round"/>
<path d="M16 19C17.6569 19 19 17.6569 19 16C19 14.3431 17.6569 13 16 13C14.3431 13 13 14.3431 13 16C13 17.6569 14.3431 19 16 19Z" stroke="#008FD6" stroke-width="2" stroke-linecap="round" stroke-linejoin="round"/>
<path d="M6 13C7.06087 13 8.07828 12.5786 8.82843 11.8284C9.57857 11.0783 10 10.0609 10 9M22 23C22 21.9391 22.4214 20.9217 23.1716 20.1716C23.9217 19.4214 24.9391 19 26 19" stroke="#008FD6" stroke-width="2" stroke-linecap="round" stroke-linejoin="round"/>
</svg>
