<svg width="17" height="24" viewBox="0 0 17 24" fill="none" xmlns="http://www.w3.org/2000/svg"><g clip-path="url(#clip0_722_6)"><path d="M8.88.858C4.405.858.763 4.5.763 8.976c0 5.556 7.426 13.712 7.735 14.057.29.323.273.323.563 0 .31-.345 7.94-8.5 7.94-14.057C17 4.5 13.358.858 8.88.858z" fill="#bbb"/><path d="M9 14A5 5 0 109 4a5 5 0 000 10z" fill="#fff"/><path d="M9 11a2 2 0 100-4 2 2 0 000 4z" fill="#bbb"/></g><defs><clipPath id="clip0_722_6"><path fill="#fff" d="M0 0h17v24H0z"/></clipPath></defs></svg>