<svg width="60" height="60" viewBox="0 0 60 60" fill="none" xmlns="http://www.w3.org/2000/svg"><path d="M30.551 25.161v-1.935c-2.12 0-3.844-1.736-3.844-3.871h-1.923c0 3.202 2.587 5.806 5.767 5.806z" fill="#008FD6"/><path d="M53.087 21.744l6.707-2.894-1.18-2.08a22.247 22.247 0 00-8.207-8.295l2.038-2.054-2.893-1.165A19.163 19.163 0 0038.11 4.36l1.608-3.234L30.097.05a8.478 8.478 0 00-.91-.05c-4.548 0-8.248 3.725-8.248 8.303v.172c0 2.58.891 5.021 2.519 6.975l-6.529 6.573a12.61 12.61 0 00-3.679 8.945c0 3.379 1.306 6.555 3.68 8.944l3.378 3.402a17.146 17.146 0 005.838 3.858 8.643 8.643 0 00-3.762 3.201 2.761 2.761 0 00-.483-.05c-1.59 0-2.884 1.302-2.884 2.903v3.87c0 1.601 1.294 2.904 2.884 2.904h16.34v-8.71c0-1.36-.566-2.587-1.466-3.467a17.053 17.053 0 007.864-4.51l6.096-6.138 2.186 2.2.936-1.886a16.15 16.15 0 00-.588-15.442l-.181-.303zM17.61 24.145l4.818 4.85a8.775 8.775 0 01-5.566 1.973h-1.69c0-2.52.86-4.907 2.438-6.823zm.679 14.4a10.654 10.654 0 01-2.938-5.642h1.51c2.887 0 5.6-1.13 7.64-3.186l.681-.684-6.247-6.29 8.733-8.794 9.495 9.56a3.695 3.695 0 011.077 2.62c0 .99-.382 1.92-1.077 2.62l-2.204 2.219 2.368 2.384a3.13 3.13 0 01.913 2.22c0 1.73-1.397 3.138-3.116 3.138a3.08 3.08 0 01-2.204-.92l-2.369-2.384-7.619 7.671a15.583 15.583 0 01-1.265-1.132l-3.378-3.4zm19.03 1.573l3.688 3.713a15.109 15.109 0 01-8.534 2.62c-2.848 0-5.568-.794-7.937-2.252l6.015-6.056 1.01 1.016a4.984 4.984 0 003.563 1.486c.79 0 1.528-.2 2.195-.527zm-16.38 16.979v-3.871c0-.533.431-.968.962-.968.53 0 .96.435.96.968v3.87c0 .534-.43.969-.96.969a.965.965 0 01-.962-.968zm7.69.968h-4.022a2.88 2.88 0 00.177-.968v-3.871c0-.733-.28-1.395-.726-1.906a6.701 6.701 0 015.532-2.933h.025a4.809 4.809 0 00-.986 2.904v6.774zm7.689 0H30.55V51.29c0-1.6 1.293-2.903 2.883-2.903s2.884 1.302 2.884 2.903v6.775zM46.41 38.793l-3.645-3.67-1.36 1.368 3.646 3.67-1.771 1.784c-.24.242-.496.46-.749.683l-3.666-3.691a5.054 5.054 0 001.298-3.367 5.062 5.062 0 00-1.475-3.587l-1.01-1.015 3.446-3.47 8.253 8.309-2.967 2.986zm5.976-2.694l-9.925-9.992a6.783 6.783 0 001.547-4.333 6.782 6.782 0 00-1.982-4.814l-4.067-4.095-1.36 1.368 4.068 4.095a4.854 4.854 0 011.418 3.446 4.856 4.856 0 01-1.418 3.446l-.524.528a5.61 5.61 0 00-1.622-3.606L27.62 11.164a3.128 3.128 0 01-.913-2.219c0-1.73 1.397-3.138 3.116-3.138h.728V3.871h-.728c-2.778 0-5.039 2.276-5.039 5.074 0 1.354.524 2.628 1.475 3.588l.05.048-1.486 1.496a8.914 8.914 0 01-1.961-5.602v-.171c0-3.511 2.837-6.368 6.324-6.368.233 0 .467.013.699.039l6.879.769-2.24 4.512 3.691-.93a17.263 17.263 0 0110.625.726l.185.075-1.834 1.847 1.192.601a20.33 20.33 0 018.561 8.154l.11.195-6.748 2.913 1.314 2.205a14.207 14.207 0 01.766 13.057z" fill="#000"/><path d="M13.532 22.942l1.36-1.368L3.028 9.629a4.488 4.488 0 01-1.311-3.186c0-2.485 2.007-4.507 4.476-4.507h.33c1.589 0 2.883 1.303 2.883 2.904 0 1.6-1.294 2.902-2.884 2.902a.965.965 0 01-.96-.967c0-.533.43-.968.96-.968h.961V3.872h-.96c-1.59 0-2.884 1.302-2.884 2.903 0 1.6 1.294 2.903 2.884 2.903 2.65 0 4.805-2.17 4.805-4.838C11.328 2.17 9.172 0 6.522 0h-.33C2.665 0-.205 2.89-.205 6.444c0 1.722.666 3.34 1.875 4.555l11.863 11.944zM4.6 19.355c-2.65 0-4.806 2.17-4.806 4.838 0 1.6 1.294 2.903 2.884 2.903 1.59 0 2.884-1.302 2.884-2.903v-.968H3.639v.968c0 .533-.43.968-.96.968a.965.965 0 01-.962-.968c0-1.6 1.294-2.903 2.884-2.903.969 0 1.916.396 2.601 1.085l3.447 3.47 1.36-1.369-3.447-3.47A5.624 5.624 0 004.6 19.355zM-.205 33.871c0 1.6 1.293 2.904 2.883 2.904s2.884-1.303 2.884-2.904v-.967H3.639v.967c0 .533-.43.968-.96.968a.965.965 0 01-.962-.968c0-1.6 1.294-2.903 2.884-2.903h6.728v-1.936H4.6c-2.65 0-4.805 2.171-4.805 4.84z" fill="#008FD6"/></svg>