<svg width="60" height="60" viewBox="0 0 60 60" fill="none" xmlns="http://www.w3.org/2000/svg"><g clip-path="url(#clip0_32_530)" stroke-width="2" stroke-linejoin="round"><path d="M48.75.938h-37.5a.937.937 0 00-.938.937v52.5c0 .518.42.938.938.938h37.5c.518 0 .938-.42.938-.938v-52.5a.937.937 0 00-.938-.938zM13.125 55.313v2.814l.962.935H45.91l.964-.936v-2.813" stroke="#000"/><path d="M45 5.625H15V15h30V5.625zm-30 4.688h18.75m1.875 0H37.5m1.875 0h1.875M16.875 26.5v-3.75h26.25v3.75m-29.062 0h31.874" stroke="#000"/><path d="M41.25 42.188a3.75 3.75 0 100-7.5 3.75 3.75 0 000 7.5zm-24.375-4.75a1.875 1.875 0 100-3.75 1.875 1.875 0 000 3.75zm7.5 0a1.875 1.875 0 100-3.75 1.875 1.875 0 000 3.75zm-10.312 4.75h13.124" stroke="#008FD6"/><path d="M15 46.875v3.75h3.75" stroke="#000"/></g><defs><clipPath id="clip0_32_530"><path fill="#fff" d="M0 0h60v60H0z"/></clipPath></defs></svg>