<svg width="58" height="55" viewBox="0 0 58 55" fill="none" xmlns="http://www.w3.org/2000/svg"><path d="M56 28.24c.01-.08.01-.16 0-.24A27 27 0 0043.8 5.44a1 1 0 00-.62-.4A26.91 26.91 0 0014.82 5a1 1 0 00-.62.4A27 27 0 002 28a.93.93 0 000 .24 3.27 3.27 0 00-2 3v2.46A3.28 3.28 0 003.27 37h51.46A3.28 3.28 0 0058 33.73v-2.46a3.27 3.27 0 00-2-3.03zM54 28H43.26a1 1 0 000-.34l-4.35-12a1 1 0 00-.94-.66H33V3.32a25 25 0 019 3.33V14a1 1 0 102 0V8a25 25 0 0110 20zM31 3.09V16a1 1 0 001 1h5.22l4 11H16.79l4-11H26a1 1 0 001-1V3.09C27.66 3 28.33 3 29 3c.67 0 1.34 0 2 .09zM14 8v6a1 1 0 102 0V6.65a25 25 0 019-3.33V15h-4.92a1 1 0 00-.94.66l-4.35 12a.998.998 0 00-.05.34H4A25 25 0 0114 8zm42 25.73A1.27 1.27 0 0154.73 35H3.27A1.27 1.27 0 012 33.73v-2.46A1.27 1.27 0 013.27 30h51.46A1.27 1.27 0 0156 31.27v2.46zM55 41a1 1 0 00-1 1v-2a1 1 0 00-1-1H5a1 1 0 00-1 1v2a1 1 0 10-2 0v7a1 1 0 102 0v2a1 1 0 00.85 1l19.38 3h.15a1 1 0 00.8-.39l3.82-5 3.82 5a1 1 0 00.8.39h.15l19.38-3a1 1 0 00.85-1v-2a1 1 0 002 0v-7a1 1 0 00-1-1zM24 52.92L6 50.14V41h22v6.66l-4 5.26zm28-2.78l-18 2.78-4-5.26V41h22v9.14z" fill="#000"/><path d="M36.86 50a.942.942 0 00.405-.093l11.225-5.425a.868.868 0 00.285-.185c.08-.078.14-.17.179-.271a.701.701 0 00-.056-.616.802.802 0 00-.225-.242.904.904 0 00-.314-.142.959.959 0 00-.68.092l-11.226 5.425a.814.814 0 00-.38.37.702.702 0 00-.047.5.773.773 0 00.304.422.932.932 0 00.53.165zm-14.964-6.608a.78.78 0 00-.212-.225.885.885 0 00-.293-.136.947.947 0 00-.645.061l-9.302 4.499a.793.793 0 00-.373.358.671.671 0 00-.045.487.749.749 0 00.303.407.908.908 0 00.52.157c.143 0 .282-.03.407-.09l9.302-4.498a.83.83 0 00.254-.188.724.724 0 00.154-.26.667.667 0 00-.07-.572zM37.78 46a.62.62 0 00.329-.087l4.482-2.38a.754.754 0 00.234-.197.84.84 0 00.08-.897.763.763 0 00-.431-.398.707.707 0 00-.57.042l-4.482 2.379a.772.772 0 00-.35.373.838.838 0 00-.052.523.8.8 0 00.268.443c.134.11.3.17.47.167l.022.032zm-14.82.072l-3.607 2.425a.79.79 0 00-.301.394.9.9 0 00-.025.518.818.818 0 00.261.429.671.671 0 00.808.049l3.607-2.425a.822.822 0 00.282-.487.893.893 0 00-.083-.573.744.744 0 00-.403-.364.65.65 0 00-.517.034h-.022z" fill="#008FD6"/></svg>