<svg width="46" height="46" viewBox="0 0 46 46" fill="none" xmlns="http://www.w3.org/2000/svg"><rect width="46" height="46" rx="22.5" fill="#2960EC"/><path d="M33.193 27.257c-.496-.527-1.06-.999-1.604-1.455-.194-.162-.394-.33-.587-.497-.555-.48-.575-.66-.136-1.204.304-.376.626-.752.937-1.115.283-.33.575-.671.855-1.014l.057-.07c.535-.655 1.089-1.332 1.383-2.149.077-.215.157-.533-.027-.798-.183-.265-.54-.346-.79-.383a2.438 2.438 0 00-.364-.022l-3.504-.002h-.03c-.53 0-.886.22-1.09.675-.196.434-.41.897-.656 1.336-.487.876-1.106 1.884-2.001 2.725l-.038.036c-.106.1-.226.214-.313.214a.166.166 0 01-.045-.007c-.185-.064-.31-.461-.304-.646v-.008l-.003-3.582a.242.242 0 00-.002-.037c-.09-.582-.287-.945-1.033-1.074a.35.35 0 00-.06-.005h-3.644c-.594 0-.921.213-1.229.532-.082.086-.255.264-.17.48.087.218.37.265.461.28.456.077.713.323.786.754.127.749.142 1.547.049 2.514a1.908 1.908 0 01-.163.654c-.02.04-.09.176-.16.176-.024 0-.09-.008-.209-.08-.283-.172-.49-.416-.73-.718a16.395 16.395 0 01-2.105-3.454 1.244 1.244 0 00-1.163-.754 116.83 116.83 0 00-1.612-.012c-.55 0-1.059.005-1.556.014-.426.007-.72.12-.875.336-.156.216-.146.5.03.845 1.402 2.757 2.673 4.761 4.122 6.5 1.015 1.216 2.033 2.058 3.204 2.65 1.233.623 2.615.927 4.225.927.183 0 .371-.004.562-.012.935-.04 1.282-.34 1.326-1.145.02-.412.072-.844.3-1.212.145-.232.28-.232.324-.232a.65.65 0 01.304.1c.204.117.379.275.522.412l.401.395c.288.285.585.58.896.86.68.611 1.43.88 2.29.822h3.234a.953.953 0 00.76-.431c.203-.316.2-.72-.01-1.08-.237-.406-.545-.753-.815-1.04z" fill="#fff"/></svg>