<svg width="46" height="46" viewBox="0 0 46 46" fill="none" xmlns="http://www.w3.org/2000/svg"><rect width="46" height="46" rx="22.5" fill="#13BF2F"/><path d="M25.541 24.042c.322-.4.536-.6.643-.6.107 0 .507.179 1.2.538.701.36 1.072.576 1.113.65.017.04.025.102.025.184 0 .27-.07.58-.21.931-.132.319-.425.588-.878.809-.454.212-.875.319-1.262.319-.47 0-1.254-.254-2.35-.76a7.06 7.06 0 01-2.103-1.446c-.594-.597-1.204-1.353-1.831-2.268-.594-.874-.887-1.666-.878-2.377v-.098c.024-.743.33-1.389.915-1.936.198-.18.412-.27.643-.27.05 0 .124.008.223.025.099.008.177.012.235.012.157 0 .264.029.322.086.066.049.132.159.198.33.066.164.202.523.408 1.079.206.556.309.862.309.92 0 .17-.144.408-.433.71-.28.294-.42.482-.42.564 0 .057.02.118.061.183.28.597.701 1.157 1.262 1.68.462.432 1.084.845 1.868 1.237.099.057.19.086.272.086.124 0 .346-.196.668-.588zm-1.868 5.894c1.048 0 2.05-.204 3.006-.613a7.82 7.82 0 002.486-1.642 7.777 7.777 0 001.658-2.45 7.473 7.473 0 00.618-2.99 7.396 7.396 0 00-.618-2.979 7.74 7.74 0 00-1.658-2.463 7.82 7.82 0 00-2.486-1.642 7.577 7.577 0 00-3.006-.613 7.665 7.665 0 00-3.018.613 7.855 7.855 0 00-2.474 1.642 7.74 7.74 0 00-1.658 2.463 7.386 7.386 0 00-.618 2.978c0 1.659.495 3.162 1.484 4.51l-.977 2.855 2.994-.943a7.658 7.658 0 004.267 1.274zm-3.624-16.2A9.18 9.18 0 0123.673 13c1.262 0 2.466.245 3.612.735a9.402 9.402 0 012.981 1.973 9.31 9.31 0 011.992 2.954A8.864 8.864 0 0133 22.24a8.95 8.95 0 01-.742 3.59 9.345 9.345 0 01-1.992 2.942 9.409 9.409 0 01-2.98 1.973 9.092 9.092 0 01-3.613.735 9.252 9.252 0 01-4.515-1.152L14 31.971l1.682-4.964a8.956 8.956 0 01-1.336-4.767c0-1.25.248-2.443.742-3.578a9.31 9.31 0 011.992-2.954 9.446 9.446 0 012.969-1.973z" fill="#fff"/></svg>