<svg width="25" height="25" viewBox="0 0 25 25" fill="none" xmlns="http://www.w3.org/2000/svg"><path d="M19.035 13.162c-.013.595-1.982 2.065-1.982 2.065s-1.968-1.47-1.982-2.066a3.254 3.254 0 00-2.015.951l.11.115a4.346 4.346 0 011.146 2.946c0 .352-.042.662-.125.936.211.008.433.01.664.01l.521-.001h3.883C20.811 18.12 22 18.04 22 16.414c0-1.702-1.302-3.1-2.965-3.252z" fill="#202125"/><path d="M17.054 13.588c1.505 0 2.723-2.26 2.723-3.764a2.723 2.723 0 00-5.445 0c0 1.504 1.219 3.764 2.722 3.764zm-6.74-.316c-.016.714-2.378 2.478-2.378 2.478s-2.362-1.764-2.378-2.478A3.918 3.918 0 002 17.173c0 1.952 1.426 2.048 3.293 2.048l.625-.002h4.035l.625.002c1.867 0 3.293-.096 3.293-2.048a3.918 3.918 0 00-3.557-3.901z" fill="#202125"/><path d="M7.937 13.784c1.805 0 3.267-2.713 3.267-4.517a3.267 3.267 0 00-6.534 0c0 1.804 1.463 4.518 3.267 4.518z" fill="#202125"/></svg>