<svg width="25" height="25" viewBox="0 0 25 25" fill="none" xmlns="http://www.w3.org/2000/svg"><path d="M12.5 11.66l6.279-6.278A9.46 9.46 0 0012.487 3a10.049 10.049 0 01-2.525 6.122L12.5 11.66zM9.121 9.962A10.05 10.05 0 013 12.488a9.462 9.462 0 002.38 6.291l6.28-6.278-2.54-2.539zm10.498 8.817a9.46 9.46 0 002.296-5.075 8.87 8.87 0 00-5.197 2.173l2.9 2.902zm-3.742-2.061a8.867 8.867 0 00-2.173 5.196 9.454 9.454 0 005.074-2.295l-2.9-2.9zM12.5 13.34l-6.279 6.28A9.461 9.461 0 0012.512 22a10.052 10.052 0 012.527-6.121L12.5 13.34zm3.379 1.698A10.052 10.052 0 0122 12.512a9.461 9.461 0 00-2.381-6.29l-6.28 6.278 2.54 2.538zM5.38 6.222a9.458 9.458 0 00-2.295 5.075 8.872 8.872 0 005.197-2.174L5.381 6.222zm3.743 2.06a8.87 8.87 0 002.173-5.196 9.452 9.452 0 00-5.074 2.295l2.9 2.901z" fill="#202125"/></svg>