<svg width="25" height="25" viewBox="0 0 25 25" fill="none" xmlns="http://www.w3.org/2000/svg"><path d="M18.61 6.084v-.443a.681.681 0 00-.68-.68h-.319a.29.29 0 00-.289-.282h-1.42a.29.29 0 00-.289.281h-.612V2H10v2.96h-.613a.289.289 0 00-.288-.28h-1.42a.29.29 0 00-.29.28H7.07a.681.681 0 00-.68.681v.443a.417.417 0 00-.39.412v13.113c0 .217.172.395.39.412v.442c0 .376.304.682.68.682h1.632v.378a.855.855 0 10.463 0v-.378h6.67v.378a.855.855 0 10.463 0v-.378h1.632a.681.681 0 00.68-.682v-.442a.417.417 0 00.39-.412V6.496a.417.417 0 00-.39-.412zm-8.042-3.506h3.864V4.96h-3.864V2.578z" fill="#202125"/></svg>