<svg width="25" height="25" viewBox="0 0 25 25" fill="none" xmlns="http://www.w3.org/2000/svg"><path d="M15.388 16.157l.228.228-.127.127-1.612 1.614-1.131 1.131c-.318.318-.634.63-1.008.89a4.915 4.915 0 01-3.378.83 4.983 4.983 0 01-3.211-1.735 5.018 5.018 0 01-1.099-3.91c.15-1.065.669-2.043 1.425-2.8l.736-.735 1.41-1.41 1-1 .227.228.211.21 4.56 4.56 1.543 1.544.226.228zm5.17-9.257a4.943 4.943 0 00-1.004-1.45 5.003 5.003 0 00-3.248-1.443 4.99 4.99 0 00-3.362 1.096c-.276.22-.518.477-.766.727l-1.197 1.197c-.533.533-1.064 1.066-1.597 1.597l.225.23.226.23.18.183 2.15 2.15 2.503 2.502 1.251 1.251.228.228.228.228 3.115-3.115a5.108 5.108 0 001.298-2.122 4.996 4.996 0 00-.23-3.489zm-2.494.647c-.157.172-.447.16-.608 0a3.46 3.46 0 00-.187-.167c-.002-.003-.004-.003-.006-.005-.011-.006-.02-.015-.03-.021l-.076-.052a2.299 2.299 0 00-.208-.122c-.037-.02-.071-.035-.108-.054l-.006-.004a2.679 2.679 0 00-.426-.125c-.021-.004-.097-.03-.116-.02.067.01.075.011.026.005l-.058-.007a2.209 2.209 0 00-.428.003l-.043.004a.6.6 0 01.026-.004c-.02-.011-.095.015-.116.019a2.588 2.588 0 00-.424.125l-.021.01a2.023 2.023 0 00-.303.17l-.076.052c-.01.006-.019.015-.03.021 0 0-.002 0-.002.002-.002 0-.002.003-.004.003a3.32 3.32 0 00-.187.167.437.437 0 01-.609 0c-.17-.157-.16-.449 0-.608.232-.23.506-.428.804-.563a2.965 2.965 0 011.718-.224 2.826 2.826 0 011.5.785.44.44 0 01-.002.61z" fill="#202125"/></svg>