<svg width="25" height="25" viewBox="0 0 25 25" fill="none" xmlns="http://www.w3.org/2000/svg">
<path d="M15.0001 8.00008C15.5304 8.00008 16.0392 7.78931 16.4144 7.41431C16.7894 7.03915 17.0001 6.53038 17.0001 6.00003C17.0001 5.46967 16.7894 4.96091 16.4144 4.58574C16.0392 4.21074 15.5304 3.99997 15.0001 3.99997C14.4697 3.99997 13.961 4.21074 13.5858 4.58574C13.2108 4.96091 13 5.46967 13 6.00003C13 6.53038 13.2108 7.03914 13.5858 7.41431C13.961 7.78931 14.4697 8.00008 15.0001 8.00008ZM6.99994 9.99997C6.99994 9.46961 6.78934 8.96086 6.41417 8.58586C6.03917 8.21069 5.53041 8.00008 5.00006 8.00008C4.46953 8.00008 3.96094 8.21069 3.58577 8.58586C3.21077 8.96086 3 9.46961 3 9.99997C3 10.5305 3.21077 11.0391 3.58577 11.4143C3.96094 11.7893 4.46953 12 5.00006 12C5.53041 12 6.03917 11.7893 6.41417 11.4143C6.78934 11.0391 6.99994 10.5305 6.99994 9.99997ZM18.9999 8.00008C18.4696 8.00008 17.9608 8.21069 17.5858 8.58586C17.2107 8.96086 17.0001 9.46961 17.0001 9.99997C17.0001 10.5305 17.2107 11.0391 17.5858 11.4143C17.9608 11.7893 18.4696 12 18.9999 12C19.5305 12 20.0391 11.7893 20.4142 11.4143C20.7892 11.0391 21 10.5305 21 9.99997C21 9.46961 20.7892 8.96086 20.4142 8.58586C20.0391 8.21069 19.5305 8.00008 18.9999 8.00008ZM9.00009 8.00008C9.53044 8.00008 10.0392 7.78931 10.4144 7.41431C10.7894 7.03915 11.0001 6.53038 11.0001 6.00003C11.0001 5.46967 10.7894 4.96091 10.4144 4.58574C10.0392 4.21074 9.53044 3.99997 9.00009 3.99997C8.46973 3.99997 7.96097 4.21074 7.5858 4.58574C7.2108 4.96091 7.00003 5.46967 7.00003 6.00003C7.00003 6.53038 7.2108 7.03914 7.5858 7.41431C7.96097 7.78931 8.46973 8.00008 9.00009 8.00008ZM15.9267 12.2741V12.2739C15.7008 11.039 14.9071 9.98206 13.784 9.42093C12.6608 8.85976 11.3389 8.85976 10.2158 9.42093C9.09261 9.9821 8.2989 11.039 8.07309 12.2739C6.9762 12.6854 6.11554 13.5583 5.71946 14.6609C5.32336 15.7634 5.43185 16.9842 6.01611 17.9997C6.60021 19.0152 7.60114 19.7227 8.75344 19.9345C9.90574 20.1461 11.0928 19.8409 11.9999 19.0994C12.9072 19.8354 14.0915 20.1365 15.2401 19.9233C16.3887 19.71 17.3861 19.0037 17.9687 17.9912C18.5513 16.9785 18.6605 15.7613 18.2675 14.6611C17.8746 13.561 17.019 12.6885 15.9266 12.274L15.9267 12.2741Z" fill="#202125"/>
</svg>
