<svg width="25" height="25" viewBox="0 0 25 25" fill="none" xmlns="http://www.w3.org/2000/svg"><path fill-rule="evenodd" clip-rule="evenodd" d="M18.395 4.46c.58.064 1.418.289 1.772.772.42 1.418.838 2.868 1.225 4.285.547-.387 3.608-.677 3.608.999 0 1.224-1.16 1.192-1.998 1.192.226.483.42 1.224.451 2.287 0 2.03.033 4.091.033 6.153 0 .387-.323.677-.71.677h-3.06a.68.68 0 01-.676-.677v-.805H5.928v.805a.66.66 0 01-.677.677h-3.06a.68.68 0 01-.677-.677c0-2.062 0-4.123.032-6.153 0-1.063.194-1.804.452-2.287-.87 0-1.998.032-1.998-1.225 0-1.514 2.932-1.45 3.608-.966.387-1.418.773-2.867 1.192-4.285.387-.483 1.192-.708 1.772-.773a38.29 38.29 0 0111.824 0zM4.865 14.993c-.13-.741-.226-1.482-.355-2.223 1.32-.097 2.513.032 3.608.419.451.257.806.74 1.128 1.288.16.355.16.645-.226.741a22.189 22.189 0 01-4.156-.225zm15.27 0c.097-.741.226-1.482.322-2.223-1.288-.097-2.512.032-3.576.419-.45.257-.805.74-1.127 1.288-.161.355-.161.645.225.741 1.386.065 2.77-.032 4.156-.225z" fill="#202125"/></svg>