<svg width="25" height="25" viewBox="0 0 25 25" fill="none" xmlns="http://www.w3.org/2000/svg"><path d="M17.923 20.897c-.23-.436-.615-1.333-.718-1.795a112.367 112.367 0 01-.795-5c-.769-6.871-8.333-6.871-8.871.231-.129 1.718-.565 3.282-1.129 4.949-.256.77-1.41 2.666-1.41 2.666s.18.36.795.744c.59.384 1.18.538 1.18.538s.897-1.512 1.179-2c.82-1.384.897-2.512 1.128-4.102.052 1.025.18 1.974-.051 3.154-.257 1.23-1.18 3.307-1.18 3.307l.795.154s.308-.436.539-1.102c.23-.667.307-.898.307-.898l.18 2.051s.974.513 3.615.18c2.641-.334 3.487-.846 3.487-.846s-.923-2.051-.948-3.18c.307.744.436 1.231.948 1.846.206.231.616.744.95.744.23 0 .845-.436 1.076-.564-.308-.41-.795-.59-1.077-1.077z" fill="#202125"/><path d="M12.026 8.487c1.384.026 2.692 1.18 2.692 1.18s-.205-1.539-1.564-2.129L13.077 1l-2.154.333c0 .18-.025 4.846-.025 6.154C9.282 8 9.385 9.564 9.385 9.564s1.256-1.128 2.64-1.077z" fill="#202125"/></svg>