<svg width="25" height="25" viewBox="0 0 25 25" fill="none" xmlns="http://www.w3.org/2000/svg"><path d="M15.726 18.109h-.122c-.244-.88-.171-2.42.196-3.789.464-1.736 1.344-3.153 1.344-3.153-3.764-2.518-4.155-6.551-4.669-7.994a.65.65 0 00.245-.513.68.68 0 00-.562-.66v1.32l.024 8.189a1.192 1.192 0 011.076 1.173 1.174 1.174 0 01-2.347 0c0-.611.465-1.1 1.051-1.173l-.024-8.19V2a.66.66 0 00-.563.66c0 .196.098.391.245.513-.513 1.443-.856 5.476-4.62 7.994 0 0 .88 1.442 1.369 3.178.366 1.344.44 2.884.22 3.764h-.122c-.245 0-.44.195-.44.464 0 .245.195.44.44.44l7.26-.024c.244 0 .44-.196.44-.44a.438.438 0 00-.44-.44zm-7.113 1.369h6.967V24H8.613v-4.522z" fill="#202125"/></svg>