<svg width="25" height="25" viewBox="0 0 25 25" fill="none" xmlns="http://www.w3.org/2000/svg"><path d="M18.063 7.343h-1.49v-.63A3.718 3.718 0 0012.86 3a3.717 3.717 0 00-3.713 3.713v.63h-1.49C6.742 7.343 6 8.084 6 8.999v9.141a2.922 2.922 0 002.922 2.923h7.875a2.922 2.922 0 002.922-2.922V9c0-.917-.74-1.658-1.656-1.658zm-7.792-.63a2.592 2.592 0 012.589-2.588 2.592 2.592 0 012.589 2.589v.629h-5.177v-.63zm2.589 8.052a3.718 3.718 0 01-3.713-3.714.562.562 0 111.125 0 2.592 2.592 0 002.588 2.59 2.592 2.592 0 002.59-2.59.562.562 0 111.124 0 3.719 3.719 0 01-3.714 3.714z" fill="#202125"/></svg>