<svg width="25" height="25" viewBox="0 0 25 25" fill="none" xmlns="http://www.w3.org/2000/svg"><path d="M16.2 6.169c-5.293 0-6.604-3.546-6.725 1.724a15.36 15.36 0 002.355-.631c.631-.219 1.141-.389 1.627-.389 1.918 0 1.918 2.355 1.918 4.88 0 .413-.024.826-.048 1.24.267-.05.582-.098.898-.098 2.477 0 3.497 1.87 3.545 1.967a.428.428 0 01-.17.583c-.073.024-.145.048-.194.048a.416.416 0 01-.389-.242c-.024-.05-.85-1.506-2.768-1.506-.388 0-.728.049-1.02.146-.291 1.87-.947 3.472-1.65 4.783 1.116 1.117 2.16 1.749 2.67 1.749 1.385 0 6.751-4.614 6.751-11.437-.024-6.824-1.166-2.817-6.8-2.817zm2.963 4.783a.974.974 0 01-.97-.97c0-.535.436-.972.97-.972.535 0 .972.437.972.971a.974.974 0 01-.972.971z" fill="#202125"/><path d="M14.404 13.283c.049-.51.097-1.02.097-1.554 0-3.156-.243-4.006-1.044-4.006-.753 0-1.991.728-3.982 1.02-.535.072-1.093.121-1.725.121-3.035 0-4.759-1.165-5.706-1.165-.801 0-1.044.85-1.044 4.006 0 6.824 5.366 11.437 6.75 11.437.899 0 3.473-1.942 5.173-5.172a13.393 13.393 0 001.287-3.594c.073-.34.145-.704.194-1.093zm-10.587-.558c0-.534.437-.971.971-.971s.971.437.971.97a.974.974 0 01-.971.972.974.974 0 01-.971-.971zm7.454 4.93c-.048.072-1.068 1.966-3.545 1.966s-3.497-1.87-3.545-1.967a.427.427 0 01.17-.582.427.427 0 01.583.17c.024.048.85 1.505 2.768 1.505 1.943 0 2.768-1.481 2.768-1.506.122-.218.389-.29.583-.17.267.098.34.365.218.583zm-1.53-4.93c0-.194.05-.34.146-.486a.947.947 0 01.826-.461c.534 0 .971.437.971.971a.974.974 0 01-.971.971.713.713 0 01-.389-.097.98.98 0 01-.582-.898z" fill="#202125"/></svg>