<svg width="25" height="25" viewBox="0 0 25 25" fill="none" xmlns="http://www.w3.org/2000/svg"><path d="M11.285 3.607c.394-.81 1.038-.81 1.434 0l1.887 3.844a3.46 3.46 0 002.319 1.682l4.26.615c.881.127 1.078.742.442 1.348l-3.074 2.993a3.453 3.453 0 00-.884 2.723l.725 4.224c.151.877-.372 1.257-1.159.841l-3.801-1.995a3.462 3.462 0 00-2.864 0l-3.8 1.996c-.787.412-1.31.035-1.16-.841l.726-4.225a3.453 3.453 0 00-.884-2.723l-3.074-2.98c-.644-.62-.44-1.231.434-1.36l4.25-.618A3.464 3.464 0 009.38 7.449l1.906-3.842z" fill="#202125"/></svg>