<svg width="25" height="25" viewBox="0 0 25 25" fill="none" xmlns="http://www.w3.org/2000/svg"><path d="M14.529 7.076a7.471 7.471 0 100 14.942 7.471 7.471 0 000-14.942zm-3.244 7.942a1.1 1.1 0 110-2.2 1.1 1.1 0 010 2.2zm.766-4.318a1.1 1.1 0 112.2 0 1.1 1.1 0 01-2.2 0zm2.965 4.318a1.1 1.1 0 110-2.2 1.1 1.1 0 010 2.2zM6.11 8.756a5.16 5.16 0 01.069-.965H3.854c.052.337.079.66.069.965H6.11zM3.676 6.9h2.68c.148-.626.34-1.287.508-1.964C7.3 3.19 6.43 2 5.016 2 3.602 2 2.733 3.19 3.167 4.936c.169.677.36 1.338.509 1.965z" fill="#202125"/><path d="M6.166 14.547c0-1.265.284-2.464.789-3.54-.244-.524-.47-.922-.598-1.179a2.127 2.127 0 01-.077-.18H3.752a2.057 2.057 0 01-.077.18c-.616 1.232-3.44 5.638 0 12.218h2.682c.538-1.028.918-2 1.181-2.918a8.31 8.31 0 01-1.372-4.581z" fill="#202125"/></svg>