<svg width="25" height="25" viewBox="0 0 25 25" fill="none" xmlns="http://www.w3.org/2000/svg"><path d="M23.499 7.459c-.084-1.246-2.097-.745-2.784-.767.474-.156 1.58-.5 1.56-1.15-.023-.769-1.62-.634-2.116-.484-1.264.382-3.018 2.164-3.14 2.405-1.703-1.446-3.983-2.546-5.515-2.6-1.722-.062-2.867.564-4.09 1.476-.024-.064-.83-1.883-1.886-2.717-.407-.32-1.785-1.024-2.092-.319-.26.596.64 1.327 1.023 1.647-.647-.234-2.33-1.447-2.87-.32-.3.623 1.713 1.624 2.204 1.844-.546.144-2.585-.526-2.785.516-.14.727 1.615 1.012 2.163 1.255-.623.383-1.113.713-.842 1.143.508.804 2.27-.245 2.44-.351-.328.455-.62.902-.837 1.271-.613 1.041-.854 2.794-.175 3.845.159.245.466.305.861.239a6.813 6.813 0 006.687 8.068c3.722 0 6.754-3.004 6.804-6.714.36.01.64-.044.848-.138 1.187-.786.755-3.218.282-5.096l-.006-.02s1.045 1.67 1.814 1.11c.411-.298-.043-1.226-.158-1.71.537.075 2.253.715 2.275-.025.021-.75-1.302-1.306-1.756-1.643.536-.022 2.138-.075 2.091-.765zm-6.481 8.195a5.72 5.72 0 01-5.713 5.712 5.719 5.719 0 01-5.452-7.42c1.731-.847 3.862-2.57 3.968-2.825 3.372 2.781 5.682 4.014 7.195 4.44l.002.093z" fill="#202125"/><path d="M8.689 15.494a.863.863 0 11-1.725 0 .863.863 0 011.725 0zm5.264 0a.862.862 0 11-1.724 0 .862.862 0 011.724 0zm-3.51 4.527a2.185 2.185 0 01-1.916-1.135.54.54 0 01.472-.802l2.891-.013a.528.528 0 01.467.262.542.542 0 01.013.536 2.184 2.184 0 01-1.927 1.152z" fill="#202125"/></svg>