<svg width="25" height="25" viewBox="0 0 25 25" fill="none" xmlns="http://www.w3.org/2000/svg"><path d="M21.916 8.792A2.29 2.29 0 0019.625 6.5H17.75V5.458A1.46 1.46 0 0016.29 4H9.625a1.46 1.46 0 00-1.458 1.458V6.5H6.292A2.29 2.29 0 004 8.792v3.333a2.29 2.29 0 002.292 2.292H9v-1.042a.625.625 0 111.25 0v1.042h5.417v-1.042a.625.625 0 111.25 0v1.042h2.708a2.29 2.29 0 002.292-2.292V8.792zm-12.5-3.334c0-.115.094-.208.209-.208h6.667a.208.208 0 01.208.208V6.5H9.416V5.458zM6.291 15.25a3.17 3.17 0 01-1.458-.358v4.733a2.29 2.29 0 002.292 2.292H18.79a2.29 2.29 0 002.292-2.292v-4.733a3.17 3.17 0 01-1.458.358h-2.709v.625a.625.625 0 01-1.25 0v-.625H10.25v.625a.625.625 0 11-1.25 0v-.625H6.29z" fill="#202125"/></svg>