<svg width="25" height="25" viewBox="0 0 25 25" fill="none" xmlns="http://www.w3.org/2000/svg"><path fill-rule="evenodd" clip-rule="evenodd" d="M5.25 21a1.125 1.125 0 100-2.25 1.125 1.125 0 000 2.25zm0-3.375a2.251 2.251 0 012.25 2.25c0 .621.504 1.125 1.125 1.125h6.75a4.495 4.495 0 003.182-1.318 4.495 4.495 0 001.318-3.182V9.75a1.124 1.124 0 00.625-2.06l-5.817-3.88a4.849 4.849 0 00-5.366 0L3.5 7.69a1.126 1.126 0 00.624 2.061v6.75c0 .621.504 1.125 1.125 1.125zm10.125-6.75c0-.62-.504-1.125-1.125-1.125h-4.5c-.621 0-1.125.504-1.125 1.125v4.5c0 .621.504 1.125 1.125 1.125h4.5c.621 0 1.125-.504 1.125-1.125v-4.5zM13.125 12v2.25h-2.25V12h2.25z" fill="#202125"/></svg>