<svg width="25" height="25" viewBox="0 0 25 25" fill="none" xmlns="http://www.w3.org/2000/svg"><path d="M17.932 19.628l-1.655-9.785c2.016-1.881 3.652-3.413 3.863-3.626.534-.54 1.21-2.443.648-3.005-.561-.562-2.468.112-3.004.648-.32.32-1.817 1.917-3.633 3.862l-9.78-1.654a.54.54 0 00-.472.151l-.649.649a.162.162 0 00.039.258l7.634 4.062c-1.48 1.59-2.862 3.078-3.744 4.027l-3.359.192a.54.54 0 00-.352.157l-.433.434a.11.11 0 00.038.184l3.392 1.154a.32.32 0 01.2.2l1.16 3.399a.11.11 0 00.185.038l.433-.433a.541.541 0 00.158-.353l.187-3.37 4.023-3.743 4.063 7.638a.162.162 0 00.258.038l.65-.649h-.001a.54.54 0 00.151-.473z" fill="#202125"/></svg>