<svg width="36" height="36" viewBox="0 0 36 36" fill="none" xmlns="http://www.w3.org/2000/svg"><path d="M26.818 9.153v-.62a.955.955 0 00-.955-.955h-.446a.406.406 0 00-.405-.394h-1.99a.405.405 0 00-.405.394h-.858v-4.15h-7.011v4.15h-.858a.405.405 0 00-.405-.394h-1.99a.405.405 0 00-.406.394h-.446a.955.955 0 00-.954.954v.621a.584.584 0 00-.546.577v18.38c0 .303.24.553.546.576v.62c0 .528.427.956.954.956h2.287v.53a1.198 1.198 0 10.649 0v-.53h9.35v.53a1.198 1.198 0 10.648 0v-.53h2.287a.955.955 0 00.954-.955v-.62a.585.585 0 00.546-.578V9.73a.584.584 0 00-.546-.577zM15.546 4.24h5.415v3.339h-5.415v-3.34z" fill="#fff"/></svg>