<svg width="36" height="36" viewBox="0 0 36 36" fill="none" xmlns="http://www.w3.org/2000/svg">
<path d="M11.7441 32C11.4823 32 11.2729 31.9229 11.1158 31.7686C10.9587 31.6143 10.8802 31.4086 10.8802 31.1514V8.16286L3.85121 13.4857C3.64178 13.64 3.41926 13.7043 3.18365 13.6786C2.97422 13.6529 2.79097 13.5371 2.6339 13.3314L2.20195 12.7914C2.04488 12.5857 1.97943 12.38 2.00561 12.1743C2.03179 11.9429 2.14959 11.75 2.35902 11.5957L10.7231 5.27C10.9064 5.14143 11.0765 5.06429 11.2336 5.03857C11.3907 5.01286 11.5609 5 11.7441 5H12.4902C12.752 5 12.9614 5.07714 13.1185 5.23143C13.2756 5.38572 13.3541 5.59143 13.3541 5.84857V31.1514C13.3541 31.4086 13.2756 31.6143 13.1185 31.7686C12.9614 31.9229 12.752 32 12.4902 32H11.7441Z" fill="white"/>
<path d="M27.39 32C27.1282 32 26.9188 31.9229 26.7617 31.7686C26.6046 31.6143 26.5261 31.4086 26.5261 31.1514V8.16286L19.4971 13.4857C19.2877 13.64 19.0652 13.7043 18.8296 13.6786C18.6201 13.6529 18.4369 13.5371 18.2798 13.3314L17.8478 12.7914C17.6908 12.5857 17.6253 12.38 17.6515 12.1743C17.6777 11.9429 17.7955 11.75 18.0049 11.5957L26.369 5.27C26.5523 5.14143 26.7224 5.06429 26.8795 5.03857C27.0366 5.01286 27.2068 5 27.39 5H28.1361C28.3979 5 28.6073 5.07714 28.7644 5.23143C28.9215 5.38572 29 5.59143 29 5.84857V31.1514C29 31.4086 28.9215 31.6143 28.7644 31.7686C28.6073 31.9229 28.3979 32 28.1361 32H27.39Z" fill="white"/>
</svg>
