<svg width="24" height="24" viewBox="0 0 24 24" fill="none" xmlns="http://www.w3.org/2000/svg">
<path d="M17.0157 12.5426C17.0034 12.3604 16.9248 12.1873 16.7927 12.0507L8.76339 3.87352C8.6047 3.71096 8.38175 3.613 8.14418 3.60131C7.90645 3.58947 7.67341 3.66505 7.49649 3.81107C7.3196 3.95695 7.2135 4.16157 7.20136 4.37945C7.18922 4.59734 7.2723 4.81065 7.43208 4.97237L14.9246 12.6001L7.43208 20.2278C7.27231 20.3895 7.18922 20.6028 7.20136 20.8207C7.2135 21.0386 7.3196 21.2433 7.49649 21.3891C7.67339 21.5351 7.90645 21.6107 8.14418 21.5989C8.38175 21.5872 8.60467 21.4892 8.76339 21.3267L16.7927 13.1495C16.9539 12.9834 17.0345 12.7642 17.0157 12.5426V12.5426Z" fill="white"/>
</svg>
