<svg width="18" height="18" viewBox="0 0 18 18" fill="none" xmlns="http://www.w3.org/2000/svg">
<path d="M8.5929 12.7615C8.72958 12.7523 8.85942 12.6934 8.96188 12.5943L15.0947 6.5723C15.2167 6.45328 15.2901 6.28607 15.2989 6.10789C15.3078 5.9296 15.2511 5.75481 15.1416 5.62213C15.0322 5.48946 14.8787 5.40988 14.7153 5.40078C14.5519 5.39167 14.3919 5.45398 14.2706 5.57382L8.5498 11.1932L2.82901 5.57382C2.70773 5.45399 2.54774 5.39167 2.38432 5.40078C2.2209 5.40988 2.06744 5.48946 1.95803 5.62213C1.84852 5.7548 1.79183 5.92959 1.80071 6.10789C1.80948 6.28607 1.88295 6.45326 2.00487 6.5723L8.13772 12.5943C8.26232 12.7152 8.42671 12.7756 8.5929 12.7615H8.5929Z" fill="#202125"/>
</svg>
