<svg width="30" height="30" viewBox="0 0 30 30" fill="none" xmlns="http://www.w3.org/2000/svg">
<path d="M23.6102 4.7998H7.58938C6.05119 4.7998 4.7998 6.05119 4.7998 7.58938V23.6102C4.7998 25.1484 6.05119 26.3998 7.58938 26.3998H23.6102C25.1484 26.3998 26.3998 25.1484 26.3998 23.6102V7.58938C26.3998 6.05119 25.1484 4.7998 23.6102 4.7998ZM5.8978 7.58938C5.8978 6.65672 6.65651 5.89802 7.58916 5.89802H23.61C24.5427 5.89802 25.3014 6.65672 25.3014 7.58938V17.6569L18.0739 21.6909L11.5948 15.2113C11.4076 15.0243 11.1133 14.9972 10.8954 15.1472L5.8978 18.583V7.58938ZM7.58933 25.3018C6.65668 25.3018 5.8978 24.5429 5.8978 23.6103V19.9159L11.1409 16.311L17.5909 22.761C17.7647 22.935 18.0328 22.9723 18.2469 22.8523L25.3012 18.9151V23.6101C25.3012 24.5428 24.5423 25.3016 23.6098 25.3016L7.58933 25.3018Z" fill="#202125"/>
<path d="M18.5289 17.2474C20.4464 17.2474 22.007 15.6871 22.007 13.7696C22.007 11.8518 20.4468 10.2915 18.5289 10.2915C16.611 10.2915 15.0508 11.8518 15.0508 13.7696C15.0511 15.6875 16.6114 17.2474 18.5289 17.2474ZM18.5289 11.3901C19.8409 11.3901 20.9085 12.4577 20.9085 13.7697C20.9085 15.0816 19.8409 16.1492 18.5289 16.1492C17.2169 16.1492 16.1493 15.0816 16.1493 13.7697C16.1493 12.4575 17.2169 11.3901 18.5289 11.3901Z" fill="#202125"/>
</svg>
