<svg width="28" height="28" viewBox="0 0 28 28" fill="none" xmlns="http://www.w3.org/2000/svg">
<path d="M4 7.99996C4 7.46954 4.21071 6.96084 4.58577 6.58577C4.96084 6.21071 5.46954 6 5.99996 6H21.9996C22.5301 6 23.0388 6.21071 23.4138 6.58577C23.7889 6.96084 23.9996 7.46954 23.9996 7.99996V19.9997C23.9996 20.5301 23.7889 21.0388 23.4138 21.4139C23.0388 21.789 22.5301 21.9997 21.9996 21.9997H5.99996C5.46954 21.9997 4.96084 21.789 4.58577 21.4139C4.21071 21.0388 4 20.5301 4 19.9997V7.99996Z" stroke="#4EC24E" stroke-width="2" stroke-linecap="round" stroke-linejoin="round"/>
<path d="M4.00018 10L11.501 16.0009C12.2103 16.5684 13.0916 16.8776 14 16.8776C14.9083 16.8776 15.7897 16.5684 16.4989 16.0009L23.9998 10" stroke="#4EC24E" stroke-width="2" stroke-linejoin="round"/>
</svg>
