<svg width="18" height="18" viewBox="0 0 18 18" fill="none" xmlns="http://www.w3.org/2000/svg">
<path d="M8.5929 5.23848C8.72958 5.2477 8.85942 5.30662 8.96188 5.40569L15.0947 11.4277C15.2167 11.5467 15.2901 11.7139 15.2989 11.8921C15.3078 12.0704 15.2511 12.2452 15.1416 12.3779C15.0322 12.5105 14.8787 12.5901 14.7153 12.5992C14.5519 12.6083 14.3919 12.546 14.2706 12.4262L8.5498 6.80683L2.82901 12.4262C2.70773 12.546 2.54774 12.6083 2.38432 12.5992C2.2209 12.5901 2.06744 12.5105 1.95803 12.3779C1.84852 12.2452 1.79183 12.0704 1.80071 11.8921C1.80948 11.7139 1.88295 11.5467 2.00487 11.4277L8.13772 5.40569C8.26232 5.2848 8.42671 5.22436 8.5929 5.23848H8.5929Z" fill="#202125"/>
</svg>
