<?xml version="1.0" encoding="utf-8"?><svg width="25" height="25" fill="none" xmlns="http://www.w3.org/2000/svg" viewBox="0 0 25 25"><path d="M20.165 4H4.835A1.837 1.837 0 003 5.835v8.939c0 1.012.823 1.835 1.835 1.835.226 0 .438.089.596.25a.828.828 0 01.24.6c-.064 3.58.003 3.608.374 3.766a.528.528 0 00.562-.109c.128-.127 2.126-2.124 4.264-4.263a.83.83 0 01.59-.244h8.703A1.837 1.837 0 0022 14.774V5.835A1.837 1.837 0 0020.165 4h0zM21 14.774c0 .46-.375.835-.835.835h-8.703c-.49 0-.95.19-1.297.537-.929.928-2.555 2.555-3.51 3.508a77.555 77.555 0 01.015-2.178 1.821 1.821 0 00-.525-1.318 1.822 1.822 0 00-1.31-.549.836.836 0 01-.835-.835V5.835c0-.46.375-.835.835-.835h15.33c.46 0 .835.374.835.835v8.939z" fill="#202125" stroke="#202125" stroke-width=".3"/></svg>