<?xml version="1.0" encoding="utf-8"?><svg width="46" height="46" fill="none" xmlns="http://www.w3.org/2000/svg" viewBox="0 0 46 46"><rect width="46" height="46" rx="22.5" fill="#C4C4C4"/><g clip-path="url(#aoclip0_241_48)"><path d="M27 13H15c-1.1 0-2 .9-2 2v14h2V15h12v-2zm3 4H19c-1.1 0-2 .9-2 2v14c0 1.1.9 2 2 2h11c1.1 0 2-.9 2-2V19c0-1.1-.9-2-2-2zm0 16H19V19h11v14z" fill="#fff"/></g><defs><clipPath id="aoclip0_241_48"><path fill="#fff" transform="translate(11 12)" d="M0 0h24v24H0z"/></clipPath></defs></svg>