<?xml version="1.0" encoding="utf-8"?><svg width="32" height="32" fill="none" xmlns="http://www.w3.org/2000/svg" viewBox="0 0 32 32"><path d="M20.474 9.408l2.118 2.117-2.118-2.117zm1.362-1.865l-5.727 5.727a2.118 2.118 0 00-.58 1.082L15 17l2.648-.53c.41-.082.786-.283 1.082-.579l5.727-5.727a1.854 1.854 0 00-2.621-2.621v0z" stroke="#008FD6" stroke-width="2" stroke-linecap="round" stroke-linejoin="round"/><path d="M23 19v3a2 2 0 01-2 2H10a2 2 0 01-2-2V11a2 2 0 012-2h3" stroke="#008FD6" stroke-width="2" stroke-linecap="round" stroke-linejoin="round"/></svg>