<?xml version="1.0" encoding="utf-8"?><svg width="30" height="30" fill="none" xmlns="http://www.w3.org/2000/svg" viewBox="0 0 30 30"><path d="M23.61 4.8H7.59A2.793 2.793 0 004.8 7.59v16.02a2.793 2.793 0 002.79 2.79h16.02a2.793 2.793 0 002.79-2.79V7.59a2.793 2.793 0 00-2.79-2.79zM5.898 7.59c0-.933.759-1.692 1.691-1.692H23.61c.933 0 1.691.759 1.691 1.691v10.068l-7.227 4.034-6.48-6.48a.55.55 0 00-.699-.064l-4.997 3.436V7.589zm1.691 17.712a1.694 1.694 0 01-1.691-1.692v-3.694l5.243-3.605 6.45 6.45a.548.548 0 00.656.091l7.054-3.937v4.695c0 .933-.759 1.692-1.691 1.692H7.59z" fill="#202125"/><path d="M18.529 17.247a3.482 3.482 0 003.478-3.477 3.482 3.482 0 00-3.478-3.479 3.482 3.482 0 00-3.478 3.479 3.482 3.482 0 003.478 3.477zm0-5.857a2.382 2.382 0 012.38 2.38 2.382 2.382 0 01-2.38 2.38 2.382 2.382 0 01-2.38-2.38 2.382 2.382 0 012.38-2.38z" fill="#202125"/></svg>