<?xml version="1.0" encoding="utf-8"?><svg width="46" height="46" fill="none" xmlns="http://www.w3.org/2000/svg" viewBox="0 0 46 46"><rect width="46" height="46" rx="22.5" fill="#282DAA"/><g clip-path="url(#apclip0_235_8)"><path d="M27.042 12h-1.245c-3.46 0-6.274 2.49-6.274 5.55v2.341h-2.126c-.22 0-.397.157-.397.351v2.806c0 .194.178.35.397.35h2.126v8.595c0 .193.178.35.397.35h3.172c.22 0 .397-.157.397-.35v-8.594h3.155c.22 0 .397-.157.397-.35v-2.807c0-.194-.178-.35-.397-.35H23.49v-2.343c0-1.125 1.035-2.041 2.308-2.041h1.245c.219 0 .396-.158.396-.351V12.35c0-.194-.177-.351-.396-.351z" fill="#fff"/></g><defs><clipPath id="apclip0_235_8"><path fill="#fff" transform="translate(17 12)" d="M0 0h11v21H0z"/></clipPath></defs></svg>