<?xml version="1.0" encoding="utf-8"?><svg width="46" height="46" fill="none" xmlns="http://www.w3.org/2000/svg" viewBox="0 0 46 46"><rect width="46" height="46" rx="22.5" fill="#E1306C"/><path d="M23.008 17.875a5.122 5.122 0 00-5.13 5.13 5.122 5.122 0 005.13 5.129c2.84 0 5.13-2.29 5.13-5.13s-2.29-5.13-5.13-5.13zm0 8.463a3.34 3.34 0 01-3.334-3.335 3.338 3.338 0 013.334-3.334 3.338 3.338 0 013.335 3.334 3.34 3.34 0 01-3.335 3.335zm6.536-8.674a1.197 1.197 0 11-2.394-.003 1.197 1.197 0 012.393.003zm3.396 1.214c-.075-1.602-.441-3.021-1.615-4.191-1.17-1.17-2.59-1.535-4.191-1.617-1.651-.094-6.602-.094-8.255 0-1.598.076-3.018.442-4.192 1.612-1.175 1.17-1.537 2.59-1.617 4.193-.094 1.651-.094 6.602 0 8.253.076 1.604.442 3.023 1.617 4.192 1.174 1.17 2.59 1.536 4.191 1.617 1.652.094 6.604.094 8.255 0 1.602-.076 3.023-.442 4.192-1.616 1.17-1.17 1.536-2.59 1.616-4.193.093-1.65.093-6.598 0-8.25zm-2.133 10.023a3.376 3.376 0 01-1.901 1.901c-1.317.524-4.442.402-5.898.402-1.456 0-4.584.116-5.898-.402a3.378 3.378 0 01-1.901-1.9c-.522-1.318-.402-4.443-.402-5.899 0-1.454-.117-4.584.402-5.896a3.376 3.376 0 011.901-1.902c1.317-.523 4.442-.402 5.898-.402 1.456 0 4.585-.117 5.898.401a3.376 3.376 0 011.902 1.902c.521 1.317.4 4.442.4 5.897 0 1.456.12 4.585-.4 5.898h-.002z" fill="#fff"/></svg>