<?xml version="1.0" encoding="utf-8"?><svg width="46" height="46" fill="none" xmlns="http://www.w3.org/2000/svg" viewBox="0 0 46 46"><rect width="46" height="46" rx="22.5" fill="#0077B5"/><path d="M16.924 32h-4.56V17.98h4.56V32zm-2.282-15.933c-1.459 0-2.642-1.153-2.642-2.545 0-.669.278-1.31.774-1.783a2.707 2.707 0 011.868-.738c.7 0 1.372.265 1.867.738.496.473.774 1.114.774 1.783 0 1.392-1.184 2.545-2.642 2.545zM33.995 32h-4.551v-6.825c0-1.626-.034-3.712-2.371-3.712-2.372 0-2.735 1.767-2.735 3.595V32h-4.556V17.98h4.374v1.912h.064c.609-1.101 2.096-2.264 4.315-2.264 4.616 0 5.465 2.902 5.465 6.67V32h-.005z" fill="#fff"/></svg>