<?xml version="1.0" encoding="utf-8"?><svg width="46" height="46" fill="none" xmlns="http://www.w3.org/2000/svg" viewBox="0 0 46 46"><rect width="46" height="46" rx="22.5" fill="#E1306C"/><path d="M32.923 16H14.077A1.08 1.08 0 0013 17.077v11.846A1.08 1.08 0 0014.077 30h18.846A1.08 1.08 0 0034 28.923V17.077A1.08 1.08 0 0032.923 16zm-.404.808l-8.4 6.3a1.05 1.05 0 01-.62.185 1.05 1.05 0 01-.619-.185l-8.399-6.3h18.038zm-4.487 6.715l4.577 5.654.015.015H14.376l.015-.015 4.577-5.654a.404.404 0 00-.628-.508l-4.532 5.599V17.312l8.588 6.442c.323.24.716.346 1.104.347.388 0 .78-.107 1.104-.347l8.588-6.442v11.302l-4.532-5.599a.404.404 0 10-.628.508z" fill="#fff"/></svg>