<?xml version="1.0" encoding="utf-8"?><svg width="46" height="46" fill="none" xmlns="http://www.w3.org/2000/svg" viewBox="0 0 46 46"><rect width="46" height="46" rx="22.5" fill="#E1306C"/><g clip-path="url(#bfclip0_239_41)"><path d="M35 23.5c0 6.69-5.371 12.11-12 12.11-1.239 0-2.429-.191-3.552-.543.49-.805 1.22-2.124 1.49-3.173l.746-2.881c.392.752 1.534 1.391 2.748 1.391 3.62 0 6.228-3.36 6.228-7.534 0-3.999-3.237-6.992-7.399-6.992-5.177 0-7.93 3.506-7.93 7.329 0 1.777.938 3.99 2.434 4.692.227.108.348.059.401-.16.039-.167.242-.992.334-1.373a.365.365 0 00-.082-.346c-.489-.61-.886-1.724-.886-2.764 0-2.671 2.003-5.254 5.42-5.254 2.946 0 5.012 2.026 5.012 4.927 0 3.276-1.64 5.547-3.774 5.547-1.175 0-2.061-.982-1.776-2.188.34-1.44.992-2.993.992-4.033 0-.928-.493-1.704-1.519-1.704-1.205 0-2.172 1.255-2.172 2.94 0 1.073.358 1.796.358 1.796s-1.186 5.069-1.404 6.016c-.242 1.045-.145 2.52-.043 3.476C14.164 33.017 11 28.632 11 23.5c0-6.69 5.371-12.11 12-12.11s12 5.42 12 12.11z" fill="#fff"/></g><defs><clipPath id="bfclip0_239_41"><path fill="#fff" transform="translate(11 11)" d="M0 0h24v25H0z"/></clipPath></defs></svg>