<?xml version="1.0" encoding="utf-8"?><svg width="28" height="28" fill="none" xmlns="http://www.w3.org/2000/svg" viewBox="0 0 28 28"><path d="M12.699 8.817L9.654 5.302c-.35-.405-.994-.403-1.402.006L5.748 7.816c-.745.746-.958 1.854-.527 2.742A26.285 26.285 0 0017.425 22.78c.888.431 1.995.218 2.74-.528l2.527-2.532c.41-.409.41-1.056.002-1.407l-3.528-3.028c-.369-.317-.942-.276-1.312.095l-1.228 1.23a.415.415 0 01-.497.079 13.101 13.101 0 01-4.824-4.83.416.416 0 01.079-.499l1.224-1.225c.37-.372.411-.948.09-1.318v0z" stroke="#4EC24E" stroke-width="2" stroke-linecap="round" stroke-linejoin="round"/></svg>