<?xml version="1.0" encoding="utf-8"?><svg width="25" height="25" fill="none" xmlns="http://www.w3.org/2000/svg" viewBox="0 0 25 25"><path d="M12.833 16.15a.5.5 0 00.5-.5V4.71l2.088 2.097a.5.5 0 00.71-.705l-2.944-2.955a.498.498 0 00-.707 0L9.537 6.102a.5.5 0 00.708.705l2.088-2.096v10.94a.5.5 0 00.5.5h0z" fill="#202125" stroke="#000" stroke-width=".3"/><path d="M22.167 11.494a.5.5 0 00-.5.5v4.928a3.213 3.213 0 01-3.208 3.21H7.218A3.222 3.222 0 014 16.912v-4.929a.5.5 0 00-1 0v4.93a4.222 4.222 0 004.218 4.219h11.24a4.213 4.213 0 004.209-4.209v-4.93a.499.499 0 00-.5-.499v0z" fill="#202125" stroke="#000" stroke-width=".3"/></svg>