<?xml version="1.0" encoding="utf-8"?><svg width="64" height="64" fill="none" xmlns="http://www.w3.org/2000/svg" viewBox="0 0 64 64"><path d="M15 10a1 1 0 100-2 1 1 0 000 2zM11 10a1 1 0 100-2 1 1 0 000 2zM7 10a1 1 0 100-2 1 1 0 000 2zM61 14H3a1 1 0 010-2h58a1 1 0 010 2z" fill="#fff"/><path d="M3 44a1 1 0 01-1-1V7c0-1.654 1.346-3 3-3h54c1.654 0 3 1.346 3 3v18a1 1 0 01-2 0V7c0-.55-.448-1-1-1H5c-.552 0-1 .45-1 1v36a1 1 0 01-1 1zM44 62H21a1 1 0 010-2h2c1.654 0 3-1.346 3-3v-2a1 1 0 012 0v2a4.978 4.978 0 01-1.002 3h10.004A4.978 4.978 0 0136 57v-6a1 1 0 012 0v6c0 1.654 1.346 3 3 3h3a1 1 0 010 2z" fill="#fff"/><path d="M37 52H5c-1.654 0-3-1.346-3-3v-6a1 1 0 011-1h28a1 1 0 010 2H4v5c0 .55.448 1 1 1h32a1 1 0 010 2zM37 28h-2a1 1 0 010-2h2a1 1 0 010 2zM55 20H35a1 1 0 010-2h20a1 1 0 010 2zM55 24H35a1 1 0 010-2h20a1 1 0 010 2zM15 28H9a1 1 0 010-2h6a1 1 0 010 2zM29 20H9a1 1 0 010-2h20a1 1 0 010 2zM29 24H9a1 1 0 010-2h20a1 1 0 010 2z" fill="#fff"/><path d="M48 54c-7.72 0-14-6.282-14-14s6.28-14 14-14c2.704 0 5.326.772 7.584 2.23a.999.999 0 11-1.086 1.678A11.95 11.95 0 0048 28c-6.618 0-12 5.382-12 12s5.382 12 12 12 12-5.382 12-12c0-1.284-.202-2.546-.598-3.754a1 1 0 011.9-.626c.462 1.412.698 2.884.698 4.38 0 7.718-6.28 14-14 14z" fill="#fff"/><path d="M47 45.398h-.024a1.006 1.006 0 01-.746-.36l-5-6a1.005 1.005 0 01.128-1.41 1.005 1.005 0 011.41.128l4.266 5.122 12.43-13.73a1.001 1.001 0 011.412-.062c.406.374.434 1.006.06 1.414l-13.2 14.574a.99.99 0 01-.736.324z" fill="#fff"/></svg>