<?xml version="1.0" encoding="utf-8"?><svg width="64" height="64" fill="none" xmlns="http://www.w3.org/2000/svg" viewBox="0 0 64 64"><path d="M22.865 33.089c-4.968 0-9.01 4.042-9.01 9.01s4.042 9.01 9.01 9.01 9.01-4.042 9.01-9.01a8.967 8.967 0 00-1.539-5.039.847.847 0 00-1.403.948 7.278 7.278 0 011.249 4.09c0 4.035-3.282 7.317-7.317 7.317-4.034 0-7.316-3.282-7.316-7.316 0-4.035 3.282-7.317 7.316-7.317a.847.847 0 100-1.693z" fill="#000"/><path d="M38.519 50.133l-2.215-2.215a.708.708 0 01-.129-.803.712.712 0 01.65-.454h3.132c.468 0 .847-.38.847-.847v-8.398a.847.847 0 00-.847-.847h-3.132c-.28 0-.536-.178-.659-.475a.713.713 0 01.138-.783l2.215-2.214a.847.847 0 000-1.198l-5.938-5.938a.847.847 0 00-1.198 1.198l5.34 5.34-1.616 1.615c-.686.685-.884 1.718-.497 2.649a2.4 2.4 0 002.215 1.5h2.285v6.704h-2.285a2.394 2.394 0 00-2.222 1.518 2.4 2.4 0 00.504 2.63l1.616 1.617-4.741 4.74-1.616-1.615c-.686-.686-1.719-.884-2.649-.497a2.4 2.4 0 00-1.5 2.215v2.285h-6.704v-2.285c0-.968-.589-1.838-1.518-2.223a2.401 2.401 0 00-2.631.505l-1.616 1.615-4.74-4.74 1.615-1.616c.686-.686.884-1.719.497-2.65a2.4 2.4 0 00-2.215-1.499H6.62v-6.704h2.285c.968 0 1.838-.59 2.223-1.518a2.402 2.402 0 00-.505-2.631l-1.615-1.616 4.74-4.74 1.616 1.615c.686.686 1.718.884 2.65.497a2.4 2.4 0 001.499-2.215V25.37h6.704v2.285a2.4 2.4 0 001.5 2.215c.305.126.61.267.907.418a.847.847 0 00.769-1.51c-.336-.17-.682-.33-1.028-.473a.712.712 0 01-.454-.65v-3.132a.847.847 0 00-.847-.847h-8.398a.847.847 0 00-.846.847v3.131c0 .281-.179.537-.475.66a.712.712 0 01-.783-.139l-2.215-2.214a.847.847 0 00-1.197 0l-5.938 5.938a.847.847 0 000 1.198l2.214 2.214a.71.71 0 01.13.804.712.712 0 01-.65.454H5.773a.847.847 0 00-.847.847v8.398c0 .467.379.846.847.846h3.131c.281 0 .536.179.66.475a.713.713 0 01-.139.783l-2.214 2.215a.847.847 0 000 1.197l5.938 5.939c.33.33.867.33 1.197 0l2.215-2.215a.71.71 0 01.776-.14c.003 0 .025.01.027.01.276.115.455.37.455.651v3.132c0 .467.379.846.846.846h8.398a.847.847 0 00.847-.846v-3.132a.709.709 0 01.475-.66.713.713 0 01.783.139l2.214 2.214a.847.847 0 001.198 0l5.938-5.938a.847.847 0 000-1.197zM47.24 39.063a5.458 5.458 0 005.453 5.452 5.458 5.458 0 005.452-5.452 5.459 5.459 0 00-5.452-5.452 5.458 5.458 0 00-5.452 5.452zm9.212 0a3.763 3.763 0 01-3.759 3.759 3.763 3.763 0 01-3.759-3.759 3.763 3.763 0 013.759-3.759 3.763 3.763 0 013.759 3.76zM58.227 55.473a.847.847 0 00.846-.847v-2.12a6.388 6.388 0 00-6.38-6.38 6.387 6.387 0 00-6.38 6.38v5.452h-10.31a.847.847 0 000 1.693h11.115c.014.001.027.005.041.005h11.068a.847.847 0 000-1.694h-10.22v-5.457a4.692 4.692 0 014.686-4.686 4.692 4.692 0 014.687 4.686v2.121c0 .468.379.847.847.847zM11.701 23.146c.468 0 .847-.379.847-.846V8.06h5.617a.847.847 0 100-1.693H11.7a.847.847 0 00-.847.846V22.3c0 .467.38.846.847.846zM46.93 8.061h5.742v20.492a.847.847 0 101.693 0V7.214a.847.847 0 00-.846-.846H46.93a.847.847 0 000 1.693zM23.172 11.708h18.876c.467 0 .846-.379.846-.847v-5.67a.847.847 0 00-.846-.847H23.172a.847.847 0 00-.846.847v5.67c0 .468.379.847.846.847zm.847-5.67h17.182v3.976H24.019V6.038z" fill="#000"/><path d="M22.865 36.62a.847.847 0 00-.846.847V42.1c0 .467.379.846.846.846h3.09a.847.847 0 100-1.693h-2.243v-3.785a.847.847 0 00-.847-.846z" fill="#000"/><path d="M21.081 18.372H40.2a.847.847 0 000-1.693H21.082a.847.847 0 100 1.693zM40.2 23.513h-3.884a.847.847 0 000 1.693H40.2a.847.847 0 000-1.693zM45.291 19.323a.844.844 0 001.198 0l2.399-2.399a.847.847 0 10-1.198-1.197l-1.8 1.8-.713-.713a.847.847 0 10-1.197 1.198l1.312 1.311zM45.291 26.158a.844.844 0 001.198 0l2.399-2.4a.847.847 0 10-1.198-1.197l-1.8 1.8-.713-.713a.847.847 0 10-1.197 1.198l1.312 1.312z" fill="#008FD6"/></svg>