<?xml version="1.0" encoding="utf-8"?><svg width="46" height="46" fill="none" xmlns="http://www.w3.org/2000/svg" viewBox="0 0 46 46"><rect width="46" height="46" rx="22.5" fill="#30A1E1"/><g clip-path="url(#cgclip0_236_13)"><path d="M34 17.018a9.001 9.001 0 01-2.159 2.217c.01.124.014.31.014.558 0 1.15-.17 2.3-.507 3.451a12.34 12.34 0 01-1.545 3.293 12.972 12.972 0 01-2.452 2.801c-.95.806-2.097 1.452-3.438 1.938-1.341.478-2.776.717-4.304.717-2.407 0-4.61-.641-6.609-1.925.31.036.657.053 1.04.053 1.998 0 3.78-.61 5.343-1.832a4.23 4.23 0 01-2.505-.85 4.23 4.23 0 01-1.52-2.123c.294.044.565.066.813.066.382 0 .76-.049 1.133-.146a4.28 4.28 0 01-2.478-1.474 4.177 4.177 0 01-.973-2.735v-.053a4.28 4.28 0 001.945.544 4.29 4.29 0 01-1.399-1.526 4.167 4.167 0 01-.52-2.045c0-.779.196-1.5.587-2.164a12.296 12.296 0 003.917 3.173 12.137 12.137 0 004.957 1.315 4.744 4.744 0 01-.107-.983c0-1.186.418-2.195 1.253-3.027.844-.84 1.861-1.261 3.051-1.261 1.244 0 2.292.451 3.145 1.354a8.458 8.458 0 002.732-1.035c-.329 1.018-.96 1.805-1.892 2.363A8.601 8.601 0 0034 17.018z" fill="#fff"/></g><defs><clipPath id="cgclip0_236_13"><path fill="#fff" transform="translate(13 15)" d="M0 0h21v17H0z"/></clipPath></defs></svg>