<?xml version="1.0" encoding="utf-8"?><svg width="46" height="46" fill="none" xmlns="http://www.w3.org/2000/svg" viewBox="0 0 46 46"><rect width="46" height="46" rx="22.5" fill="#35465C"/><g clip-path="url(#bvclip0_239_44)"><path d="M28.617 31.762c-.51.566-1.875 1.238-3.652 1.238-4.53 0-5.512-3.469-5.512-5.492v-5.625H17.67a.384.384 0 01-.375-.39v-2.657a.66.66 0 01.424-.625c2.325-.852 3.056-2.969 3.161-4.574.03-.43.244-.637.604-.637h2.659c.206 0 .375.176.375.39v4.5h3.112a.38.38 0 01.375.387v3.192c0 .215-.169.39-.375.39h-3.127v5.203c0 1.336.888 2.094 2.55 1.399.18-.074.337-.125.476-.086.131.035.217.133.277.309l.826 2.511c.067.196.123.414-.015.567z" fill="#fff"/></g><defs><clipPath id="bvclip0_239_44"><path fill="#fff" transform="translate(17 13)" d="M0 0h12v20H0z"/></clipPath></defs></svg>