<?xml version="1.0" encoding="utf-8"?><svg viewBox="0 0 682.667 682.667" xmlns="http://www.w3.org/2000/svg" xmlns:xlink="http://www.w3.org/1999/xlink"><style>:root>svg{display:none}:root>svg:target{display:block}</style><svg fill="none" viewBox="0 0 28 28" id="ic_address" xmlns="http://www.w3.org/2000/svg"><path d="M14 15a3 3 0 100-6 3 3 0 000 6z" stroke="#000" stroke-width="2" stroke-linecap="round" stroke-linejoin="round"/><path d="M14 4a8 8 0 00-8 8c0 1.892.402 3.13 1.5 4.5L14 24l6.5-7.5c1.098-1.37 1.5-2.608 1.5-4.5a8 8 0 00-8-8v0z" stroke="#000" stroke-width="2" stroke-linecap="round" stroke-linejoin="round"/></svg><svg fill="#fff" viewBox="0 0 24 24" id="ic_bookmark" xmlns="http://www.w3.org/2000/svg"><path d="M17 18l-5-2.18L7 18V5h10m0-2H7a2 2 0 00-2 2v16l7-3 7 3V5a2 2 0 00-2-2z"/></svg><svg viewBox="0 0 24 24" id="ic_build" xmlns="http://www.w3.org/2000/svg"><path d="M18 15h-2v2h2m0-6h-2v2h2m2 6h-8v-2h2v-2h-2v-2h2v-2h-2V9h8M10 7H8V5h2m0 6H8V9h2m0 6H8v-2h2m0 6H8v-2h2M6 7H4V5h2m0 6H4V9h2m0 6H4v-2h2m0 6H4v-2h2m6-10V3H2v18h20V7H12z"/></svg><svg fill="none" viewBox="0 0 28 28" id="ic_check" xmlns="http://www.w3.org/2000/svg"><path d="M22 13.263v.736a8 8 0 11-4.744-7.312" stroke="#fff" stroke-width="2" stroke-linecap="round" stroke-linejoin="round"/><path d="M22 7.599l-8 8.008-2.4-2.4" stroke="#fff" stroke-width="2" stroke-linecap="round" stroke-linejoin="round"/></svg><svg fill="none" viewBox="0 0 28 28" id="ic_check-blue" xmlns="http://www.w3.org/2000/svg"><path d="M22 13.263v.736a8 8 0 11-4.744-7.312" stroke="#008FD6" stroke-width="2" stroke-linecap="round" stroke-linejoin="round"/><path d="M22 7.599l-8 8.008-2.4-2.4" stroke="#008FD6" stroke-width="2" stroke-linecap="round" stroke-linejoin="round"/></svg><svg fill="none" viewBox="0 0 16 12" id="ic_check-min" xmlns="http://www.w3.org/2000/svg"><path d="M15 1L5.375 11 1 6.455" stroke="#fff" stroke-width="2" stroke-linecap="round" stroke-linejoin="round"/></svg><svg fill="none" viewBox="0 0 32 32" id="ic_clock" xmlns="http://www.w3.org/2000/svg"><path d="M16 26c5.523 0 10-4.477 10-10S21.523 6 16 6 6 10.477 6 16s4.477 10 10 10z" stroke="#008FD6" stroke-width="2" stroke-linecap="round" stroke-linejoin="round"/><path d="M19 20l-2.414-2.414A2 2 0 0116 16.172V10" stroke="#008FD6" stroke-width="2" stroke-linecap="round" stroke-linejoin="round"/></svg><svg fill="#555" viewBox="0 0 24 24" id="ic_database" xmlns="http://www.w3.org/2000/svg"><path d="M12 3C7.58 3 4 4.79 4 7s3.58 4 8 4 8-1.79 8-4-3.58-4-8-4M4 9v3c0 2.21 3.58 4 8 4s8-1.79 8-4V9c0 2.21-3.58 4-8 4s-8-1.79-8-4m0 5v3c0 2.21 3.58 4 8 4s8-1.79 8-4v-3c0 2.21-3.58 4-8 4s-8-1.79-8-4z"/></svg><svg fill="none" viewBox="0 0 32 32" id="ic_edit" xmlns="http://www.w3.org/2000/svg"><path d="M20.474 9.408l2.118 2.117-2.118-2.117zm1.362-1.865l-5.727 5.727a2.118 2.118 0 00-.58 1.082L15 17l2.648-.53c.41-.082.786-.283 1.082-.579l5.727-5.727a1.854 1.854 0 00-2.621-2.621v0z" stroke="#008FD6" stroke-width="2" stroke-linecap="round" stroke-linejoin="round"/><path d="M23 19v3a2 2 0 01-2 2H10a2 2 0 01-2-2V11a2 2 0 012-2h3" stroke="#008FD6" stroke-width="2" stroke-linecap="round" stroke-linejoin="round"/></svg><svg viewBox="0 0 9 17" id="ic_fb" xmlns="http://www.w3.org/2000/svg"><path d="M8.216 0H7.198c-2.83 0-5.134 2.015-5.134 4.492v1.896H.324c-.179 0-.324.127-.324.284v2.272c0 .156.145.284.324.284h1.74v6.956c0 .157.146.284.325.284h2.595c.18 0 .325-.127.325-.284V9.228H7.89c.179 0 .324-.128.324-.284V6.672c0-.157-.145-.284-.324-.284H5.309V4.492c0-.911.847-1.653 1.889-1.653h1.018c.18 0 .325-.127.325-.284V.284C8.54.127 8.395 0 8.216 0z"/></svg><svg viewBox="0 0 30 26" id="ic_heart" xmlns="http://www.w3.org/2000/svg"><path d="M21.494.582a8.43 8.43 0 00-6.494 3 8.316 8.316 0 00-6.494-3A8.506 8.506 0 000 9.088C0 17.138 14.05 25 14.62 25.303c.23.154.53.154.76 0C15.95 25 30 17.253 30 9.088A8.506 8.506 0 0021.494.582zM15 23.784C12.797 22.494 1.519 15.62 1.519 9.088a6.987 6.987 0 016.987-6.987 6.835 6.835 0 015.848 3.152.798.798 0 001.292 0A6.987 6.987 0 0128.48 9.088c0 6.608-11.279 13.443-13.481 14.696z"/></svg><svg viewBox="0 0 24 24" id="ic_heart-solid" xmlns="http://www.w3.org/2000/svg"><path d="M17.192 2.565h.003A6.305 6.305 0 0123.5 8.87c0 1.49-.643 3.002-1.672 4.46-1.027 1.455-2.41 2.818-3.826 4.001-2.83 2.366-5.721 3.957-5.933 4.07l-.022.012-.02.014a.047.047 0 01-.053 0l-.02-.014-.023-.012c-.21-.111-3.1-1.726-5.932-4.103-1.416-1.189-2.8-2.555-3.827-4.007C1.142 11.836.5 10.336.5 8.871a6.305 6.305 0 016.305-6.306h.006a6.153 6.153 0 014.804 2.22l.383.46.384-.458a6.244 6.244 0 014.81-2.222z"/></svg><svg viewBox="0 0 20 21" id="ic_ig" xmlns="http://www.w3.org/2000/svg"><path d="M10.004 5.295a5.122 5.122 0 00-5.13 5.13 5.122 5.122 0 005.13 5.129c2.84 0 5.13-2.29 5.13-5.13 0-2.839-2.29-5.13-5.13-5.13zm0 8.464a3.34 3.34 0 01-3.334-3.335 3.338 3.338 0 013.334-3.335 3.338 3.338 0 013.335 3.335 3.34 3.34 0 01-3.335 3.335zm6.536-8.674c0 .665-.536 1.196-1.196 1.196a1.197 1.197 0 111.196-1.196zm3.397 1.214c-.076-1.602-.442-3.022-1.616-4.192C17.151.937 15.732.572 14.13.491c-1.651-.094-6.602-.094-8.254 0-1.598.076-3.018.442-4.192 1.612C.509 3.273.147 4.693.067 6.295c-.094 1.652-.094 6.603 0 8.254.076 1.603.442 3.023 1.616 4.192 1.174 1.17 2.59 1.536 4.192 1.616 1.652.094 6.603.094 8.254 0 1.603-.076 3.023-.442 4.192-1.616 1.17-1.17 1.536-2.59 1.616-4.192.094-1.651.094-6.598 0-8.25zm-2.134 10.023a3.376 3.376 0 01-1.901 1.901c-1.317.523-4.442.402-5.898.402-1.455 0-4.584.116-5.897-.402a3.377 3.377 0 01-1.902-1.901c-.522-1.317-.401-4.442-.401-5.898 0-1.455-.117-4.585.401-5.897a3.376 3.376 0 011.902-1.902c1.317-.522 4.442-.402 5.897-.402 1.456 0 4.585-.116 5.898.402a3.376 3.376 0 011.902 1.902c.522 1.317.401 4.442.401 5.897 0 1.456.12 4.585-.401 5.898z"/></svg><svg version="1.0" viewBox="0 0 512 512" id="ic_like" xmlns="http://www.w3.org/2000/svg"><path d="M273.8 17c-17.8 3.2-30 11.5-36.8 25-6.3 12.4-8.5 24.7-10 54.5-2.1 41.5-3.6 47.8-15.2 61.2-11.7 13.7-39 31.6-63 41.3l-5.6 2.3-3.2-3.6c-1.8-2.1-4.8-4.2-6.8-4.7-2.5-.8-20.9-1-55.4-.8-50.4.3-51.7.4-54.4 2.4-1.5 1.1-3.7 3.3-4.8 4.8-2.1 2.7-2.1 2.9-2.1 144.6s0 141.9 2.1 144.6c1.1 1.5 3.3 3.7 4.8 4.8 2.7 2 4 2.1 54.4 2.4 34.5.2 52.9 0 55.4-.8 4.5-1.3 9.5-6.8 10.4-11.5l.6-3.5 136.7-.2 136.6-.3 5.5-2.6c7.4-3.5 13.4-9.8 17.5-18.3 2.6-5.3 9.9-31.3 28.5-101.1 22.3-83.8 25-94.8 25-101.6 0-22.7-15.7-42.1-37.8-46.8-3.5-.7-22.4-1.1-55.4-1.1h-50l.6-2.3c1.3-5.3 4.7-28.2 6.2-42.7 2.5-22.5 2.5-63.4.1-75.4-7.5-36.7-24-59.7-48.8-68.2-5.8-2-9.9-2.6-18.9-2.9-6.3-.2-13.6 0-16.2.5zm27.7 34c13.4 6.5 22.5 24 25.7 49.7 1.8 15-.3 57.4-4.3 83.8-2.3 15.4-4 21.8-8.1 30.3-4.6 9.7-3.2 16.8 4.6 22.6 2.7 2.1 4.1 2.1 67.6 2.6 63.8.5 64.9.5 67.7 2.6 4.5 3.4 7.3 8.2 7.3 12.8 0 4.9-48.4 187-50.6 190.3L410 448H144V235.5l8.8-3.4c21.2-8.3 47-22.3 62.1-33.9 19.8-15 33.8-33.5 39.2-51.7 1.7-5.6 3.8-26.9 4.9-48.5 1.3-25.3 2.3-32.7 5.5-39.7 3.6-7.9 9.4-10.4 23.5-10 6.6.2 9.7.8 13.5 2.7zM112 344v120H48V224h64v120z"/></svg><svg viewBox="0 0 24 24" id="ic_loupe" xmlns="http://www.w3.org/2000/svg"><path d="M15.5 14l5 5-1.5 1.5-5-5v-.79l-.27-.28A6.471 6.471 0 019.5 16 6.5 6.5 0 013 9.5 6.5 6.5 0 019.5 3 6.5 6.5 0 0116 9.5c0 1.61-.59 3.09-1.57 4.23l.28.27h.79m-6 0C12 14 14 12 14 9.5S12 5 9.5 5 5 7 5 9.5 7 14 9.5 14m2.5-4h-2v2H9v-2H7V9h2V7h1v2h2v1z"/></svg><svg fill="none" viewBox="0 0 28 28" id="ic_mail" xmlns="http://www.w3.org/2000/svg"><path d="M4 8a2 2 0 012-2h16a2 2 0 012 2v12a2 2 0 01-2 2H6a2 2 0 01-2-2V8z" stroke="#4EC24E" stroke-width="2" stroke-linecap="round" stroke-linejoin="round"/><path d="M4 10l7.501 6a4 4 0 004.998 0l7.5-6" stroke="#4EC24E" stroke-width="2" stroke-linejoin="round"/></svg><svg fill="#555" viewBox="0 0 24 24" id="ic_map-marker" xmlns="http://www.w3.org/2000/svg"><path d="M12 11.5A2.5 2.5 0 019.5 9 2.5 2.5 0 0112 6.5 2.5 2.5 0 0114.5 9a2.5 2.5 0 01-2.5 2.5M12 2a7 7 0 00-7 7c0 5.25 7 13 7 13s7-7.75 7-13a7 7 0 00-7-7z"/></svg><svg fill="none" viewBox="0 0 32 32" id="ic_money" xmlns="http://www.w3.org/2000/svg"><path d="M6 11a2 2 0 012-2h16a2 2 0 012 2v10a2 2 0 01-2 2H8a2 2 0 01-2-2V11z" stroke="#008FD6" stroke-width="2" stroke-linecap="round" stroke-linejoin="round"/><path d="M16 19a3 3 0 100-6 3 3 0 000 6zM6 13a4 4 0 004-4m12 14a4 4 0 014-4" stroke="#008FD6" stroke-width="2" stroke-linecap="round" stroke-linejoin="round"/></svg><svg fill="none" viewBox="0 0 15 12" id="ic_ok" xmlns="http://www.w3.org/2000/svg"><path d="M3.567 10.299L13.549.317l1.414 1.414-9.982 9.982-1.414-1.414z" fill="#4AC635"/><path d="M1.51 5.434l4.43 4.432-1.413 1.414L.096 6.849 1.51 5.434z" fill="#4AC635"/></svg><svg fill="none" viewBox="0 0 18 13" id="ic_ok-dark" xmlns="http://www.w3.org/2000/svg"><path d="M17 1L6 12 1 7" stroke="#92919F" stroke-width="2" stroke-linecap="round" stroke-linejoin="round"/></svg><svg fill="none" viewBox="0 0 28 28" id="ic_phone" xmlns="http://www.w3.org/2000/svg"><path d="M12.699 8.817L9.654 5.302c-.35-.405-.994-.403-1.402.006L5.748 7.816c-.745.746-.958 1.854-.527 2.742A26.285 26.285 0 0017.425 22.78c.888.431 1.995.218 2.74-.528l2.527-2.532c.41-.409.41-1.056.002-1.407l-3.528-3.028c-.369-.317-.942-.276-1.312.095l-1.228 1.23a.415.415 0 01-.497.079 13.101 13.101 0 01-4.824-4.83.416.416 0 01.079-.499l1.224-1.225c.37-.372.411-.948.09-1.318v0z" stroke="#999" stroke-width="2" stroke-linecap="round" stroke-linejoin="round"/></svg><svg fill="none" viewBox="0 0 17 24" id="ic_pin" xmlns="http://www.w3.org/2000/svg"><g clip-path="url(#avclip0_722_6)"><path d="M8.88.858C4.405.858.763 4.5.763 8.976c0 5.556 7.426 13.712 7.735 14.057.29.323.273.323.563 0 .31-.345 7.94-8.5 7.94-14.057C17 4.5 13.358.858 8.88.858z" fill="#bbb"/><path d="M9 14A5 5 0 109 4a5 5 0 000 10z" fill="#fff"/><path d="M9 11a2 2 0 100-4 2 2 0 000 4z" fill="#bbb"/></g><defs><clipPath id="avclip0_722_6"><path fill="#fff" d="M0 0h17v24H0z"/></clipPath></defs></svg><svg viewBox="0 0 24 24" id="ic_sort" xmlns="http://www.w3.org/2000/svg"><path d="M19 7h3l-4-4-4 4h3v14h2M2 17h10v2H2M6 5v2H2V5m0 6h7v2H2v-2z"/></svg><svg fill="none" viewBox="0 0 64 64" id="ic_step1" xmlns="http://www.w3.org/2000/svg"><path d="M15 10a1 1 0 100-2 1 1 0 000 2zM11 10a1 1 0 100-2 1 1 0 000 2zM7 10a1 1 0 100-2 1 1 0 000 2zM61 14H3a1 1 0 010-2h58a1 1 0 010 2z" fill="#fff"/><path d="M3 44a1 1 0 01-1-1V7c0-1.654 1.346-3 3-3h54c1.654 0 3 1.346 3 3v18a1 1 0 01-2 0V7c0-.55-.448-1-1-1H5c-.552 0-1 .45-1 1v36a1 1 0 01-1 1zM44 62H21a1 1 0 010-2h2c1.654 0 3-1.346 3-3v-2a1 1 0 012 0v2a4.978 4.978 0 01-1.002 3h10.004A4.978 4.978 0 0136 57v-6a1 1 0 012 0v6c0 1.654 1.346 3 3 3h3a1 1 0 010 2z" fill="#fff"/><path d="M37 52H5c-1.654 0-3-1.346-3-3v-6a1 1 0 011-1h28a1 1 0 010 2H4v5c0 .55.448 1 1 1h32a1 1 0 010 2zM37 28h-2a1 1 0 010-2h2a1 1 0 010 2zM55 20H35a1 1 0 010-2h20a1 1 0 010 2zM55 24H35a1 1 0 010-2h20a1 1 0 010 2zM15 28H9a1 1 0 010-2h6a1 1 0 010 2zM29 20H9a1 1 0 010-2h20a1 1 0 010 2zM29 24H9a1 1 0 010-2h20a1 1 0 010 2z" fill="#fff"/><path d="M48 54c-7.72 0-14-6.282-14-14s6.28-14 14-14c2.704 0 5.326.772 7.584 2.23a.999.999 0 11-1.086 1.678A11.95 11.95 0 0048 28c-6.618 0-12 5.382-12 12s5.382 12 12 12 12-5.382 12-12c0-1.284-.202-2.546-.598-3.754a1 1 0 011.9-.626c.462 1.412.698 2.884.698 4.38 0 7.718-6.28 14-14 14z" fill="#fff"/><path d="M47 45.398h-.024a1.006 1.006 0 01-.746-.36l-5-6a1.005 1.005 0 01.128-1.41 1.005 1.005 0 011.41.128l4.266 5.122 12.43-13.73a1.001 1.001 0 011.412-.062c.406.374.434 1.006.06 1.414l-13.2 14.574a.99.99 0 01-.736.324z" fill="#fff"/></svg><svg fill="none" viewBox="0 0 64 64" id="ic_step2" xmlns="http://www.w3.org/2000/svg"><path d="M22.865 33.089c-4.968 0-9.01 4.042-9.01 9.01s4.042 9.01 9.01 9.01 9.01-4.042 9.01-9.01a8.967 8.967 0 00-1.539-5.039.847.847 0 00-1.403.948 7.278 7.278 0 011.249 4.09c0 4.035-3.282 7.317-7.317 7.317-4.034 0-7.316-3.282-7.316-7.316 0-4.035 3.282-7.317 7.316-7.317a.847.847 0 100-1.693z" fill="#000"/><path d="M38.519 50.133l-2.215-2.215a.708.708 0 01-.129-.803.712.712 0 01.65-.454h3.132c.468 0 .847-.38.847-.847v-8.398a.847.847 0 00-.847-.847h-3.132c-.28 0-.536-.178-.659-.475a.713.713 0 01.138-.783l2.215-2.214a.847.847 0 000-1.198l-5.938-5.938a.847.847 0 00-1.198 1.198l5.34 5.34-1.616 1.615c-.686.685-.884 1.718-.497 2.649a2.4 2.4 0 002.215 1.5h2.285v6.704h-2.285a2.394 2.394 0 00-2.222 1.518 2.4 2.4 0 00.504 2.63l1.616 1.617-4.741 4.74-1.616-1.615c-.686-.686-1.719-.884-2.649-.497a2.4 2.4 0 00-1.5 2.215v2.285h-6.704v-2.285c0-.968-.589-1.838-1.518-2.223a2.401 2.401 0 00-2.631.505l-1.616 1.615-4.74-4.74 1.615-1.616c.686-.686.884-1.719.497-2.65a2.4 2.4 0 00-2.215-1.499H6.62v-6.704h2.285c.968 0 1.838-.59 2.223-1.518a2.402 2.402 0 00-.505-2.631l-1.615-1.616 4.74-4.74 1.616 1.615c.686.686 1.718.884 2.65.497a2.4 2.4 0 001.499-2.215V25.37h6.704v2.285a2.4 2.4 0 001.5 2.215c.305.126.61.267.907.418a.847.847 0 00.769-1.51c-.336-.17-.682-.33-1.028-.473a.712.712 0 01-.454-.65v-3.132a.847.847 0 00-.847-.847h-8.398a.847.847 0 00-.846.847v3.131c0 .281-.179.537-.475.66a.712.712 0 01-.783-.139l-2.215-2.214a.847.847 0 00-1.197 0l-5.938 5.938a.847.847 0 000 1.198l2.214 2.214a.71.71 0 01.13.804.712.712 0 01-.65.454H5.773a.847.847 0 00-.847.847v8.398c0 .467.379.846.847.846h3.131c.281 0 .536.179.66.475a.713.713 0 01-.139.783l-2.214 2.215a.847.847 0 000 1.197l5.938 5.939c.33.33.867.33 1.197 0l2.215-2.215a.71.71 0 01.776-.14c.003 0 .025.01.027.01.276.115.455.37.455.651v3.132c0 .467.379.846.846.846h8.398a.847.847 0 00.847-.846v-3.132a.709.709 0 01.475-.66.713.713 0 01.783.139l2.214 2.214a.847.847 0 001.198 0l5.938-5.938a.847.847 0 000-1.197zM47.24 39.063a5.458 5.458 0 005.453 5.452 5.458 5.458 0 005.452-5.452 5.459 5.459 0 00-5.452-5.452 5.458 5.458 0 00-5.452 5.452zm9.212 0a3.763 3.763 0 01-3.759 3.759 3.763 3.763 0 01-3.759-3.759 3.763 3.763 0 013.759-3.759 3.763 3.763 0 013.759 3.76zM58.227 55.473a.847.847 0 00.846-.847v-2.12a6.388 6.388 0 00-6.38-6.38 6.387 6.387 0 00-6.38 6.38v5.452h-10.31a.847.847 0 000 1.693h11.115c.014.001.027.005.041.005h11.068a.847.847 0 000-1.694h-10.22v-5.457a4.692 4.692 0 014.686-4.686 4.692 4.692 0 014.687 4.686v2.121c0 .468.379.847.847.847zM11.701 23.146c.468 0 .847-.379.847-.846V8.06h5.617a.847.847 0 100-1.693H11.7a.847.847 0 00-.847.846V22.3c0 .467.38.846.847.846zM46.93 8.061h5.742v20.492a.847.847 0 101.693 0V7.214a.847.847 0 00-.846-.846H46.93a.847.847 0 000 1.693zM23.172 11.708h18.876c.467 0 .846-.379.846-.847v-5.67a.847.847 0 00-.846-.847H23.172a.847.847 0 00-.846.847v5.67c0 .468.379.847.846.847zm.847-5.67h17.182v3.976H24.019V6.038z" fill="#000"/><path d="M22.865 36.62a.847.847 0 00-.846.847V42.1c0 .467.379.846.846.846h3.09a.847.847 0 100-1.693h-2.243v-3.785a.847.847 0 00-.847-.846z" fill="#000"/><path d="M21.081 18.372H40.2a.847.847 0 000-1.693H21.082a.847.847 0 100 1.693zM40.2 23.513h-3.884a.847.847 0 000 1.693H40.2a.847.847 0 000-1.693zM45.291 19.323a.844.844 0 001.198 0l2.399-2.399a.847.847 0 10-1.198-1.197l-1.8 1.8-.713-.713a.847.847 0 10-1.197 1.198l1.312 1.311zM45.291 26.158a.844.844 0 001.198 0l2.399-2.4a.847.847 0 10-1.198-1.197l-1.8 1.8-.713-.713a.847.847 0 10-1.197 1.198l1.312 1.312z" fill="#008FD6"/></svg><svg fill="none" viewBox="0 0 60 60" id="ic_step3" xmlns="http://www.w3.org/2000/svg"><g clip-path="url(#azclip0_32_530)" stroke-width="2" stroke-linejoin="round"><path d="M48.75.938h-37.5a.937.937 0 00-.938.937v52.5c0 .518.42.938.938.938h37.5c.518 0 .938-.42.938-.938v-52.5a.937.937 0 00-.938-.938zM13.125 55.313v2.814l.962.935H45.91l.964-.936v-2.813" stroke="#000"/><path d="M45 5.625H15V15h30V5.625zM15 10.313h18.75M35.625 10.313H37.5M39.375 10.313h1.875M16.875 26.5v-3.75h26.25v3.75M14.063 26.5h31.874" stroke="#000"/><path d="M41.25 42.188a3.75 3.75 0 100-7.5 3.75 3.75 0 000 7.5zM16.875 37.438a1.875 1.875 0 100-3.75 1.875 1.875 0 000 3.75zM24.375 37.438a1.875 1.875 0 100-3.75 1.875 1.875 0 000 3.75zM14.063 42.188h13.124" stroke="#008FD6"/><path d="M15 46.875v3.75h3.75" stroke="#000"/></g><defs><clipPath id="azclip0_32_530"><path fill="#fff" d="M0 0h60v60H0z"/></clipPath></defs></svg><svg fill="none" viewBox="0 0 58 55" id="ic_step4" xmlns="http://www.w3.org/2000/svg"><path d="M56 28.24c.01-.08.01-.16 0-.24A27 27 0 0043.8 5.44a1 1 0 00-.62-.4A26.91 26.91 0 0014.82 5a1 1 0 00-.62.4A27 27 0 002 28a.93.93 0 000 .24 3.27 3.27 0 00-2 3v2.46A3.28 3.28 0 003.27 37h51.46A3.28 3.28 0 0058 33.73v-2.46a3.27 3.27 0 00-2-3.03zM54 28H43.26a1 1 0 000-.34l-4.35-12a1 1 0 00-.94-.66H33V3.32a25 25 0 019 3.33V14a1 1 0 102 0V8a25 25 0 0110 20zM31 3.09V16a1 1 0 001 1h5.22l4 11H16.79l4-11H26a1 1 0 001-1V3.09C27.66 3 28.33 3 29 3c.67 0 1.34 0 2 .09zM14 8v6a1 1 0 102 0V6.65a25 25 0 019-3.33V15h-4.92a1 1 0 00-.94.66l-4.35 12a.998.998 0 00-.05.34H4A25 25 0 0114 8zm42 25.73A1.27 1.27 0 0154.73 35H3.27A1.27 1.27 0 012 33.73v-2.46A1.27 1.27 0 013.27 30h51.46A1.27 1.27 0 0156 31.27v2.46zM55 41a1 1 0 00-1 1v-2a1 1 0 00-1-1H5a1 1 0 00-1 1v2a1 1 0 10-2 0v7a1 1 0 102 0v2a1 1 0 00.85 1l19.38 3h.15a1 1 0 00.8-.39l3.82-5 3.82 5a1 1 0 00.8.39h.15l19.38-3a1 1 0 00.85-1v-2a1 1 0 002 0v-7a1 1 0 00-1-1zM24 52.92L6 50.14V41h22v6.66l-4 5.26zm28-2.78l-18 2.78-4-5.26V41h22v9.14z" fill="#000"/><path d="M36.86 50a.942.942 0 00.405-.093l11.225-5.425a.868.868 0 00.285-.185c.08-.078.14-.17.179-.271a.701.701 0 00-.056-.616.802.802 0 00-.225-.242.904.904 0 00-.314-.142.959.959 0 00-.68.092l-11.226 5.425a.814.814 0 00-.38.37.702.702 0 00-.047.5.773.773 0 00.304.422c.151.106.337.164.53.165zM21.896 43.392a.78.78 0 00-.212-.225.885.885 0 00-.293-.136.947.947 0 00-.645.061l-9.302 4.499a.793.793 0 00-.373.358.671.671 0 00-.045.487.749.749 0 00.303.407c.149.103.332.158.52.157.143 0 .282-.03.407-.09l9.302-4.498a.83.83 0 00.254-.188.724.724 0 00.154-.26.667.667 0 00-.07-.572zM37.78 46a.62.62 0 00.329-.087l4.482-2.38a.754.754 0 00.234-.197.84.84 0 00.08-.897.763.763 0 00-.431-.398.707.707 0 00-.57.042l-4.482 2.379a.772.772 0 00-.35.373.838.838 0 00-.052.523.8.8 0 00.268.443c.134.11.3.17.47.167l.022.032zM22.96 46.072l-3.607 2.425a.79.79 0 00-.301.394.9.9 0 00-.025.518.818.818 0 00.261.429.671.671 0 00.808.049l3.607-2.425a.822.822 0 00.282-.487.893.893 0 00-.083-.573.744.744 0 00-.403-.364.65.65 0 00-.517.034h-.022z" fill="#008FD6"/></svg><svg fill="none" viewBox="0 0 60 60" id="ic_step5" xmlns="http://www.w3.org/2000/svg"><path d="M30.551 25.161v-1.935c-2.12 0-3.844-1.736-3.844-3.871h-1.923c0 3.202 2.587 5.806 5.767 5.806z" fill="#008FD6"/><path d="M53.087 21.744l6.707-2.894-1.18-2.08a22.247 22.247 0 00-8.207-8.295l2.038-2.054-2.893-1.165A19.163 19.163 0 0038.11 4.36l1.608-3.234L30.097.05a8.478 8.478 0 00-.91-.05c-4.548 0-8.248 3.725-8.248 8.303v.172c0 2.58.891 5.021 2.519 6.975l-6.529 6.573a12.61 12.61 0 00-3.679 8.945c0 3.379 1.306 6.555 3.68 8.944l3.378 3.402a17.146 17.146 0 005.838 3.858 8.643 8.643 0 00-3.762 3.201 2.761 2.761 0 00-.483-.05c-1.59 0-2.884 1.302-2.884 2.903v3.87c0 1.601 1.294 2.904 2.884 2.904h16.34v-8.71c0-1.36-.566-2.587-1.466-3.467a17.053 17.053 0 007.864-4.51l6.096-6.138 2.186 2.2.936-1.886a16.15 16.15 0 00-.588-15.442l-.181-.303zM17.61 24.145l4.818 4.85a8.775 8.775 0 01-5.566 1.973h-1.69c0-2.52.86-4.907 2.438-6.823zm.679 14.4a10.654 10.654 0 01-2.938-5.642h1.51c2.887 0 5.6-1.13 7.64-3.186l.681-.684-6.247-6.29 8.733-8.794 9.495 9.56c.695.7 1.077 1.631 1.077 2.62 0 .99-.382 1.92-1.077 2.62l-2.204 2.219 2.368 2.384a3.13 3.13 0 01.913 2.22c0 1.73-1.397 3.138-3.116 3.138a3.08 3.08 0 01-2.204-.92l-2.369-2.384-7.619 7.671a15.583 15.583 0 01-1.265-1.132l-3.378-3.4zm19.03 1.573l3.688 3.713a15.109 15.109 0 01-8.534 2.62c-2.848 0-5.568-.794-7.937-2.252l6.015-6.056 1.01 1.016a4.984 4.984 0 003.563 1.486c.79 0 1.528-.2 2.195-.527zm-16.38 16.979v-3.871c0-.533.431-.968.962-.968.53 0 .96.435.96.968v3.87c0 .534-.43.969-.96.969a.965.965 0 01-.962-.968zm7.69.968h-4.022c.108-.304.177-.627.177-.968v-3.871c0-.733-.28-1.395-.726-1.906a6.701 6.701 0 015.532-2.933h.025a4.809 4.809 0 00-.986 2.904v6.774zm7.689 0H30.55V51.29c0-1.6 1.293-2.903 2.883-2.903s2.884 1.302 2.884 2.903v6.775zM46.41 38.793l-3.645-3.67-1.36 1.368 3.646 3.67-1.771 1.784c-.24.242-.496.46-.749.683l-3.666-3.691a5.054 5.054 0 001.298-3.367 5.062 5.062 0 00-1.475-3.587l-1.01-1.015 3.446-3.47 8.253 8.309-2.967 2.986zm5.976-2.694l-9.925-9.992a6.783 6.783 0 001.547-4.333 6.782 6.782 0 00-1.982-4.814l-4.067-4.095-1.36 1.368 4.068 4.095a4.854 4.854 0 011.418 3.446 4.856 4.856 0 01-1.418 3.446l-.524.528a5.61 5.61 0 00-1.622-3.606L27.62 11.164a3.128 3.128 0 01-.913-2.219c0-1.73 1.397-3.138 3.116-3.138h.728V3.871h-.728c-2.778 0-5.039 2.276-5.039 5.074 0 1.354.524 2.628 1.475 3.588l.05.048-1.486 1.496a8.914 8.914 0 01-1.961-5.602v-.171c0-3.511 2.837-6.368 6.324-6.368.233 0 .467.013.699.039l6.879.769-2.24 4.512 3.691-.93a17.263 17.263 0 0110.625.726l.185.075-1.834 1.847 1.192.601a20.33 20.33 0 018.561 8.154l.11.195-6.748 2.913 1.314 2.205a14.207 14.207 0 01.766 13.057z" fill="#000"/><path d="M13.532 22.942l1.36-1.368L3.028 9.629a4.488 4.488 0 01-1.311-3.186c0-2.485 2.007-4.507 4.476-4.507h.33c1.589 0 2.883 1.303 2.883 2.904 0 1.6-1.294 2.902-2.884 2.902a.965.965 0 01-.96-.967c0-.533.43-.968.96-.968h.961V3.872h-.96c-1.59 0-2.884 1.302-2.884 2.903 0 1.6 1.294 2.903 2.884 2.903 2.65 0 4.805-2.17 4.805-4.838C11.328 2.17 9.172 0 6.522 0h-.33C2.665 0-.205 2.89-.205 6.444c0 1.722.666 3.34 1.875 4.555l11.863 11.944zM4.6 19.355c-2.65 0-4.806 2.17-4.806 4.838 0 1.6 1.294 2.903 2.884 2.903 1.59 0 2.884-1.302 2.884-2.903v-.968H3.639v.968c0 .533-.43.968-.96.968a.965.965 0 01-.962-.968c0-1.6 1.294-2.903 2.884-2.903.969 0 1.916.396 2.601 1.085l3.447 3.47 1.36-1.369-3.447-3.47A5.624 5.624 0 004.6 19.355zM-.205 33.871c0 1.6 1.293 2.904 2.883 2.904s2.884-1.303 2.884-2.904v-.967H3.639v.967c0 .533-.43.968-.96.968a.965.965 0 01-.962-.968c0-1.6 1.294-2.903 2.884-2.903h6.728v-1.936H4.6c-2.65 0-4.805 2.171-4.805 4.84z" fill="#008FD6"/></svg><svg fill="none" viewBox="0 0 18 36" id="ic_swiper-next" xmlns="http://www.w3.org/2000/svg"><path d="M1 35l15-17L1 1" stroke="#000" stroke-width="2"/></svg><svg fill="none" viewBox="0 0 40 40" id="ic_swiper-next-round" xmlns="http://www.w3.org/2000/svg"><rect x="4" y="3" width="32" height="32" rx="16" fill="#fff"/><path d="M18 25l6-6-6-6" stroke="#4EC24E" stroke-width="2" stroke-linecap="round" stroke-linejoin="round"/></svg><svg fill="none" viewBox="0 0 18 36" id="ic_swiper-prev" xmlns="http://www.w3.org/2000/svg"><path d="M17 35L2 18 17 1" stroke="#000" stroke-width="2"/></svg><svg fill="none" viewBox="0 0 40 40" id="ic_swiper-prev-round" xmlns="http://www.w3.org/2000/svg"><rect x="4" y="3" width="32" height="32" rx="16" fill="#fff"/><path d="M22 25l-6-6 6-6" stroke="#4EC24E" stroke-width="2" stroke-linecap="round" stroke-linejoin="round"/></svg><svg viewBox="0 0 16 14" id="ic_tg" xmlns="http://www.w3.org/2000/svg"><path d="M6.279 9.096l-.265 3.723c.379 0 .543-.163.74-.358l1.775-1.697 3.679 2.695c.674.376 1.15.178 1.332-.621l2.415-11.316c.214-.997-.36-1.388-1.018-1.143L.743 5.813c-.969.376-.954.916-.165 1.161l3.629 1.129 8.43-5.274c.396-.263.757-.118.46.145L6.279 9.096z"/></svg><svg fill="none" viewBox="0 0 28 28" id="ic_time" xmlns="http://www.w3.org/2000/svg"><path d="M14 23a9 9 0 100-18 9 9 0 000 18z" stroke="#000" stroke-width="2" stroke-linecap="round" stroke-linejoin="round"/><path d="M16.7 17.6l-2.173-2.172A1.8 1.8 0 0114 14.155V8.6" stroke="#000" stroke-width="2" stroke-linecap="round" stroke-linejoin="round"/></svg><svg viewBox="0 0 16 13" id="ic_tw" xmlns="http://www.w3.org/2000/svg"><path d="M16 1.543a6.872 6.872 0 01-1.645 1.696 9.368 9.368 0 01-.376 3.066 9.453 9.453 0 01-1.177 2.517 9.91 9.91 0 01-1.868 2.143c-.724.615-1.597 1.11-2.62 1.482a9.666 9.666 0 01-3.278.548A9.106 9.106 0 010 11.523c.237.027.5.04.792.04a6.42 6.42 0 004.07-1.4 3.214 3.214 0 01-1.908-.65 3.235 3.235 0 01-1.157-1.625c.223.034.43.051.62.051.29 0 .578-.037.862-.112a3.259 3.259 0 01-1.888-1.126A3.201 3.201 0 01.65 4.609v-.04c.46.257.954.395 1.482.416a3.275 3.275 0 01-1.066-1.168A3.195 3.195 0 01.67 2.254c0-.596.149-1.147.447-1.655a9.373 9.373 0 002.985 2.426A9.22 9.22 0 007.878 4.03a3.643 3.643 0 01-.081-.75c0-.908.318-1.68.954-2.316A3.169 3.169 0 0111.076 0c.948 0 1.746.345 2.396 1.036a6.43 6.43 0 002.081-.792 3.184 3.184 0 01-1.441 1.807A6.534 6.534 0 0016 1.543z"/></svg><svg viewBox="0 0 24 24" id="ic_usd" xmlns="http://www.w3.org/2000/svg"><path d="M7 15h2c0 1.08 1.37 2 3 2s3-.92 3-2c0-1.1-1.04-1.5-3.24-2.03C9.64 12.44 7 11.78 7 9c0-1.79 1.47-3.31 3.5-3.82V3h3v2.18C15.53 5.69 17 7.21 17 9h-2c0-1.08-1.37-2-3-2s-3 .92-3 2c0 1.1 1.04 1.5 3.24 2.03C14.36 11.56 17 12.22 17 15c0 1.79-1.47 3.31-3.5 3.82V21h-3v-2.18C8.47 18.31 7 16.79 7 15z"/></svg><svg viewBox="0 0 24 24" id="ic_user" xmlns="http://www.w3.org/2000/svg"><path d="M12 4a4 4 0 014 4 4 4 0 01-4 4 4 4 0 01-4-4 4 4 0 014-4m0 10c4.42 0 8 1.79 8 4v2H4v-2c0-2.21 3.58-4 8-4z"/></svg><svg viewBox="0 0 20 20" id="ic_vb" xmlns="http://www.w3.org/2000/svg"><path d="M17.745 1.948c-.524-.457-2.64-1.914-7.36-1.934 0 0-5.565-.316-8.276 2.043C.602 3.487.07 5.584.013 8.18c-.058 2.597-.128 7.464 4.819 8.784h.004l-.004 2.015s-.033.817.535.98c.684.204 1.088-.417 1.743-1.085.358-.367.852-.906 1.227-1.316 3.386.27 5.985-.348 6.281-.438.684-.21 4.552-.68 5.178-5.546.65-5.023-.313-8.194-2.051-9.627zm.572 9.26c-.531 4.062-3.666 4.32-4.242 4.496-.247.074-2.534.613-5.404.437 0 0-2.142 2.449-2.81 3.086-.218.207-.457.187-.452-.223 0-.27.016-3.347.016-3.347-.004 0-.004 0 0 0-4.193-1.102-3.946-5.246-3.9-7.413.045-2.168.477-3.945 1.754-5.14 2.294-1.973 7.019-1.68 7.019-1.68 3.99.016 5.902 1.156 6.347 1.539 1.47 1.195 2.22 4.054 1.672 8.245zm-5.725-3.156c.016.336-.515.36-.532.024-.045-.86-.469-1.278-1.342-1.324-.354-.02-.322-.524.029-.504 1.149.058 1.787.683 1.845 1.804zm.836.442c.041-1.656-1.05-2.953-3.122-3.098-.35-.023-.313-.527.037-.504 2.389.164 3.662 1.723 3.616 3.613-.004.336-.54.32-.531-.011zm1.936.523c.004.336-.532.34-.532.004-.024-3.183-2.26-4.918-4.975-4.937-.35-.004-.35-.504 0-.504 3.036.02 5.478 2.008 5.507 5.437zm-.466 3.832v.007c-.444.742-1.276 1.563-2.133 1.3l-.008-.01c-.87-.231-2.917-1.231-4.21-2.208-.667-.5-1.277-1.09-1.746-1.656a12.643 12.643 0 01-1.269-1.82c-.877-1.503-1.07-2.175-1.07-2.175-.277-.813.584-1.602 1.37-2.023h.009c.379-.188.741-.125.984.152 0 0 .511.578.73.863.205.266.481.691.626.93.25.425.094.859-.153 1.039l-.494.375c-.251.19-.218.546-.218.546s.733 2.629 3.472 3.293c0 0 .375.031.576-.207l.396-.469c.19-.234.646-.383 1.095-.144.606.324 1.376.828 1.887 1.285.288.222.354.562.156.921z"/></svg><svg viewBox="0 0 24 24" id="ic_view-week" xmlns="http://www.w3.org/2000/svg"><path d="M13 5h-3a1 1 0 00-1 1v12a1 1 0 001 1h3a1 1 0 001-1V6a1 1 0 00-1-1m7 0h-3a1 1 0 00-1 1v12a1 1 0 001 1h3a1 1 0 001-1V6a1 1 0 00-1-1M6 5H3a1 1 0 00-1 1v12a1 1 0 001 1h3a1 1 0 001-1V6a1 1 0 00-1-1z"/></svg><svg viewBox="0 0 19 11" id="ic_vk" xmlns="http://www.w3.org/2000/svg"><path d="M17.57 8.059c-.393-.414-.84-.785-1.27-1.143-.154-.128-.313-.26-.466-.39-.438-.377-.454-.519-.107-.947.24-.295.495-.59.742-.876.224-.26.455-.527.677-.796l.045-.055c.424-.515.862-1.047 1.095-1.689.06-.17.124-.418-.021-.627-.145-.208-.427-.272-.627-.301a1.946 1.946 0 00-.287-.017l-2.774-.002h-.023c-.42 0-.702.174-.864.53a13.74 13.74 0 01-.519 1.05c-.385.688-.875 1.48-1.584 2.141l-.03.028c-.084.08-.179.169-.248.169a.133.133 0 01-.035-.006c-.147-.05-.246-.362-.241-.507v-.006L11.03 1.8l-.003-.03c-.07-.457-.226-.742-.817-.843a.278.278 0 00-.048-.004H7.278c-.47 0-.729.168-.972.419-.066.067-.202.206-.135.376.07.172.292.208.365.22.361.06.564.254.622.593.1.588.113 1.216.039 1.975a1.49 1.49 0 01-.129.514c-.015.032-.07.138-.127.138-.018 0-.07-.006-.165-.063-.224-.135-.387-.327-.578-.564A12.863 12.863 0 014.53 1.817a.986.986 0 00-.92-.592c-.46-.006-.878-.01-1.276-.01-.435 0-.839.004-1.232.012-.337.005-.57.093-.693.263s-.115.394.024.664C1.544 4.32 2.55 5.896 3.697 7.261c.804.956 1.61 1.618 2.536 2.082.977.49 2.071.729 3.345.729.145 0 .294-.003.445-.01.74-.031 1.015-.266 1.05-.9.016-.323.057-.662.238-.951.114-.183.22-.183.256-.183.067 0 .151.028.241.079.161.092.3.216.413.324l.317.31c.228.224.464.456.71.675.538.481 1.132.693 1.813.647h2.56a.755.755 0 00.602-.34c.16-.248.157-.564-.008-.847a4.587 4.587 0 00-.645-.817z"/></svg><svg viewBox="0 0 16 17" id="ic_wa" xmlns="http://www.w3.org/2000/svg"><path d="M9.719 9.385c.27-.34.451-.51.541-.51.09 0 .428.153 1.01.458.591.306.904.49.938.552.014.035.021.087.021.157 0 .229-.059.493-.177.791-.111.271-.358.5-.74.688-.381.18-.736.27-1.062.27-.396 0-1.056-.215-1.98-.645a5.945 5.945 0 01-1.77-1.23C6 9.41 5.486 8.768 4.958 7.99c-.5-.743-.746-1.417-.74-2.021v-.084c.022-.632.279-1.18.772-1.645a.788.788 0 01.541-.23c.042 0 .104.007.188.021.083.007.15.01.198.01.132 0 .222.025.27.074.056.041.112.135.167.28.056.14.17.445.344.918.174.472.26.732.26.78 0 .147-.121.348-.364.605-.236.25-.354.41-.354.48 0 .048.017.1.052.155.236.507.59.983 1.062 1.427.39.368.913.72 1.573 1.053.083.048.16.072.23.072.103 0 .29-.166.562-.5zm-1.573 5.01a6.33 6.33 0 002.531-.52 6.581 6.581 0 002.094-1.396 6.613 6.613 0 001.396-2.083c.347-.813.52-1.66.52-2.542a6.33 6.33 0 00-.52-2.531 6.582 6.582 0 00-1.396-2.094 6.581 6.581 0 00-2.094-1.396 6.329 6.329 0 00-2.531-.52c-.882 0-1.73.173-2.542.52-.805.348-1.5.813-2.083 1.396a6.582 6.582 0 00-1.396 2.094 6.329 6.329 0 00-.52 2.531c0 1.41.416 2.688 1.25 3.833l-.824 2.428 2.521-.803a6.406 6.406 0 003.594 1.084zM5.094.626A7.669 7.669 0 018.146 0c1.062 0 2.076.208 3.041.625a7.918 7.918 0 012.51 1.677 7.918 7.918 0 011.678 2.51c.417.966.625 1.98.625 3.042 0 1.063-.208 2.08-.625 3.052a7.947 7.947 0 01-1.677 2.5 7.916 7.916 0 01-2.51 1.677 7.594 7.594 0 01-3.042.625 7.735 7.735 0 01-3.802-.979L0 16.125l1.417-4.219A7.666 7.666 0 01.292 7.854c0-1.062.208-2.076.625-3.042a7.917 7.917 0 011.677-2.51 7.948 7.948 0 012.5-1.677z"/></svg><svg viewBox="0 0 576 512" id="ic_yt" xmlns="http://www.w3.org/2000/svg"><!--! Font Awesome Pro 6.1.1 by @fontawesome - https://fontawesome.com License - https://fontawesome.com/license (Commercial License) Copyright 2022 Fonticons, Inc.--><path d="M549.655 124.083c-6.281-23.65-24.787-42.276-48.284-48.597C458.781 64 288 64 288 64S117.22 64 74.629 75.486c-23.497 6.322-42.003 24.947-48.284 48.597-11.412 42.867-11.412 132.305-11.412 132.305s0 89.438 11.412 132.305c6.281 23.65 24.787 41.5 48.284 47.821C117.22 448 288 448 288 448s170.78 0 213.371-11.486c23.497-6.321 42.003-24.171 48.284-47.821 11.412-42.867 11.412-132.305 11.412-132.305s0-89.438-11.412-132.305zm-317.51 213.508V175.185l142.739 81.205-142.739 81.201z"/></svg></svg>